<?xml version="1.0" encoding="UTF-8"?><svg id="Layer_1" xmlns="http://www.w3.org/2000/svg" viewBox="0 0 603.83 391.89"><path d="m585.8,161.22c1.15,1.76,2.26,3.53,3.32,5.31-.98,13.74-2.38,32.05-3.5,45.77,4.14-7.68,9.6-17.96,13.63-25.7.72,1.76,1.4,3.53,2.03,5.29l-11.34,44.92c-.63-1.76-1.31-3.53-2.03-5.29l4.06-16.09c1.81-7.16,2.55-9.9,3.3-12.22-3.19,6.24-7.47,14.55-10.73,20.75-.8-1.67-1.65-3.34-2.53-5.01.86-10.97,2-25.6,2.78-36.58-.65,3.57-1.13,5.5-3.57,15.18l-3.49,13.82c-1.05-1.75-2.14-3.49-3.28-5.23l11.34-44.92" style="fill:#b44e15;"/><path d="m566.1,135.82c5.53,6.13,10.56,12.35,15.07,18.63l-11.34,44.92c-1.28-1.78-2.6-3.56-3.96-5.33l4.64-18.38c-2.89-3.75-5.96-7.48-9.21-11.18l1.78-7.05c3.25,3.7,6.33,7.42,9.21,11.18l3.09-12.22c-3.44-4.48-7.15-8.91-11.11-13.3l1.84-7.27" style="fill:#b44e15;"/><path d="m550.26,154.44q.34-19.91.51-21.88c-.32.85-.73,1.56-1.49,2.87l-7.2,11.16c2.81,2.6,5.54,5.21,8.17,7.85m.26-34.45c1.85,1.73,3.66,3.46,5.42,5.21-.46,28.72-.52,32.41-1.18,55.53-1.62-1.8-3.29-3.59-4.99-5.37l.33-12.76c-3.59-3.65-7.34-7.26-11.27-10.83l-5.19,8.09c-1.98-1.76-4-3.51-6.06-5.25,12.06-18.02,13.61-20.34,22.95-34.62" style="fill:#b44e15;"/><path d="m495.5,78.43c10.34,6.41,20.13,13.1,29.28,20l-1.84,7.27c-3.53-2.66-7.14-5.29-10.85-7.88l-9.51,37.65c-2.22-1.55-4.47-3.09-6.76-4.62l9.51-37.65c-3.81-2.54-7.7-5.05-11.67-7.51l1.84-7.27" style="fill:#b44e15;"/><path d="m484.15,70.72c2.37,1.37,4.72,2.76,7.04,4.15l-11.55,45.72c-2.3-1.39-4.63-2.76-6.99-4.12l4.19-16.58c2.07-9.79-7.13-14.54-10.59-12.19-1.66,1.12-2.29,3.32-2.63,4.5l-4.26,16.89c-2.45-1.31-4.92-2.6-7.42-3.88l4.72-18.68c4.5-15.54,17.72-6.02,21.1-.15.9,1.57,1.29,2.87,1.52,3.64l4.87-19.29" style="fill:#b44e15;"/><path d="m443.43,80.55c.53-10.61-10.77-13.53-14.25-10.34-1.1,1.01-1.5,2.31-1.74,3.08,5.42,2.35,10.75,4.77,15.99,7.25m-4.81-16.84c18.27,9.24,13.45,30.35,2.91,33.33-7.97,2.25-24.26-5.04-24.31-18.83,2.51,1.04,5,2.09,7.47,3.16.71,7.1,11.76,12.08,15.98,7.19.88-1.02,1.3-2.03,1.75-3.1-7.24-3.27-16.84-7.73-24.16-10.82l.57-2.27c4.32-14.42,16.24-10.27,19.79-8.66" style="fill:#b44e15;"/><path d="m404.43,49.64c15.3,6.2,11.83,17.45,7.29,19.48-2.46,1.1-5.62.63-7.51.35q-8.45-1.33-9.55-.95c-1.94.67-2.15,3.02-1.02,4.6,1.78,2.5,9.93,6.3,11.71,1.04,2.63,1.02,5.24,2.05,7.84,3.1-3.83,12.15-22.93,4.34-27.17-3.74-.07-.14-5.49-13.71,9.93-11.77q8.81,1.34,10.05.89c2.23-.81,2.06-3.44.96-4.89-1.6-2.11-8.14-5.21-9.91-.1-2.68-.97-5.38-1.92-8.09-2.85,3.07-9.23,13.42-5.92,15.47-5.17" style="fill:#b44e15;"/><path d="m375.29,40.7c2.91.9,5.81,1.83,8.69,2.77l-7.66,30.35c-2.88-.95-5.77-1.87-8.69-2.77l7.66-30.35m8.16-13.75c5.49,2,5.27,7.46,1.85,8.94-4.26,1.85-9.6-2.48-8.05-6.53.85-2.23,3.52-3.26,6.2-2.41" style="fill:#b44e15;"/><path d="m353.8,33.51c16.44,4.9,12.91,16.2,8.09,18.54-2.61,1.27-5.98,1.05-8,.92q-9.01-.64-10.17-.19c-2.05.81-2.23,3.13-1.02,4.59,1.93,2.32,10.67,5.41,12.48.1,2.82.79,5.63,1.61,8.43,2.44-4.08,12.82-25.9,5.41-29.51-2.55-.05-.12-4.74-11.98,10.88-11.32q9.4.63,10.71.09c2.36-.97,2.13-3.53.94-4.87-1.79-2-8.71-4.57-10.54.68-2.85-.73-5.71-1.45-8.59-2.14,3.06-9.3,14.12-6.88,16.31-6.29" style="fill:#b44e15;"/><path d="m279.26,4.65c8.96,1.1,18.04,2.45,27.23,4.04,2.47.43,4.93.87,7.38,1.33l-11.34,44.92c-2.45-.46-4.91-.9-7.38-1.33-9.18-1.59-18.26-2.94-27.23-4.04l1.83-7.24c8.16,1.01,16.41,2.21,24.76,3.62l3.01-11.91c-7.48-1.26-14.89-2.36-22.22-3.3l1.76-6.96c7.33.94,14.74,2.04,22.22,3.3l2.91-11.53c-8.34-1.41-16.6-2.61-24.76-3.62l1.84-7.27" style="fill:#b44e15;"/><path d="m234.37,15.77c3.28.14,6.58.32,9.9.53l5.04,10.85,10.62-9.62c3.5.33,7.03.69,10.57,1.1l-16.54,14.2,8.87,16.16c-3.46-.39-6.91-.75-10.34-1.07l-5.12-10.67-10.21,9.46c-3.39-.22-6.75-.4-10.1-.55l15.58-14.32-8.27-16.04" style="fill:#b44e15;"/><path d="m224.36,0c2.88.04,5.77.11,8.69.2l-11.55,45.72c-2.89-.09-5.77-.16-8.62-.2l4.19-16.58c1.82-8.72-7.35-9.3-11.56-6.45-2.73,1.85-3.58,4.78-3.98,6.19l-4.26,16.89c-2.79.05-5.55.14-8.3.24l4.72-18.68c4.99-17.36,22.12-14.2,25.52-8.56.1.16.21.38.3.54L224.36,0" style="fill:#b44e15;"/><path d="m180.5,16.58c2.67-.21,5.35-.39,8.06-.54l-7.66,30.35c-2.71.16-5.39.34-8.06.54l7.66-30.35m7.85-15.41c4.62-.1,4.83,4.16,2.34,6.79-3.1,3.27-8.12,2.91-8.4-.6-.22-2.85,2.83-5.97,6.06-6.19" style="fill:#b44e15;"/><path d="m149.61,43.56c11.19-2.07,13.72-14.68,9.35-17.68-6.29-4.32-17.45,5.74-15.71,14.17.77,3.74,4.32,3.81,6.36,3.52M168.39,2.77c2.58-.31,5.17-.59,7.79-.84l-11.55,45.72c-2.43.24-4.83.5-7.22.78.2-1.4.48-3.27.68-4.67-6.94,8.98-21.65,10.34-22.67-.24-1.42-14.86,16.68-31.05,26.18-23.4,1.1.88,1.52,1.86,1.78,2.45l5-19.79" style="fill:#b44e15;"/><path d="m127.15,24.65c2.33-.55,4.69-1.07,7.08-1.58l-7.66,30.35c-2.39.5-4.75,1.03-7.08,1.58l7.66-30.35m7.34-15.92c3.92-.68,4.12,3.05,2.16,5.84-2.58,3.69-7.13,4.47-7.61,1.32-.42-2.74,2.43-6.49,5.44-7.16" style="fill:#b44e15;"/><path d="m113.19,19.55c2.19-.66,4.42-1.29,6.67-1.9l-2.39,9.45c1.76-.48,3.54-.94,5.33-1.39l-1.58,6.27c-1.79.45-3.57.91-5.33,1.39l-6.08,24.08c-2.25.61-4.47,1.24-6.67,1.9l6.08-24.08c-1.72.52-3.43,1.04-5.12,1.59l1.58-6.27c1.69-.54,3.4-1.07,5.12-1.59l2.39-9.45" style="fill:#b44e15;"/><path d="m95.45,34.13c2.05-.76,4.14-1.5,6.25-2.22l-7.66,30.35c-2.11.72-4.2,1.46-6.25,2.22l7.66-30.35m6.93-16.25c3.4-1.02,3.44,2.36,1.98,5.04-2.13,3.92-6.28,5.6-6.94,2.82-.6-2.53,2.14-6.86,4.96-7.86" style="fill:#b44e15;"/><path d="m71.84,65.84c8.33-4.37,11.76-17.72,7.68-19.01-1.12-.35-4.88.06-8.86,6.17-2.31,3.54-4.15,9.61-3.06,12.13.62,1.46,2.13,1.71,4.25.71m6.37-25.24c10.39-4.34,10.6,5.79,7.47,14-5.42,14.22-20.15,23.52-23.35,17.08-3.06-6.15,4.73-25.81,15.89-31.08" style="fill:#b44e15;"/><path d="m51.39,56.28c2.65-1.82,4.28-1.6,4.86.66l1.38-4.18c1.5-.97,3.03-1.93,4.59-2.87l-7.66,30.35c-1.68,1.01-3.34,2.05-4.95,3.1l4.13-16.34c1.57-6.75-.96-5.94-2.13-5.27-1.84,1.05-4.43,3.77-6.29,10.73l-4.26,16.89c-1.48,1.12-2.92,2.26-4.33,3.43l4.72-18.68c.86-3.23,3.49-13.07,9.95-17.81" style="fill:#b44e15;"/><path d="m23.53,88.51c-.49-3.65-.78-7.3-.86-10.94L0,167.35c.08,3.64.36,7.29.86,10.94l22.67-89.78" style="fill:#fff;"/><path d="m28.09,152.11c-3.9-7.56-6.43-5.99-8.2-3.78l1.68-8.7c-1.14-3.22-2.13-6.45-2.96-9.67l-15.32,60.67c.9,3.48,1.98,6.97,3.24,10.44l8.25-32.67c.94-3.49,3.79-14.12,7.78-6.96,2.27,4.07,4.31,11.72,1.18,25.03l-8.53,33.78c1.88,3.45,3.92,6.88,6.11,10.3l9.43-37.34c1.39-5.96,5.62-24.09-2.66-41.1" style="fill:#fff;"/><path d="m59.55,174.85c-2.91-3.32-5.68-6.66-8.29-10.03l-4.77,18.91c-2.04-2.62-3.98-5.25-5.84-7.9l-3.16,12.52c1.85,2.65,3.8,5.28,5.84,7.9l-12.16,48.15c2.62,3.37,5.38,6.71,8.29,10.03l12.16-48.15c2.29,2.61,4.68,5.21,7.15,7.79l3.16-12.52c-2.47-2.58-4.85-5.18-7.15-7.79l4.77-18.91" style="fill:#fff;"/><path d="m75.76,274.33c-14.77-13.21-9.37-39.77,1.13-40.44,13.66-.87,25.58,27.19,13.4,40.57-3.83,4.21-9.27,4.16-14.53-.13m12.75-50.47c-28.23-21.34-34.48,15.51-32.1,33.12,4.05,29.85,31,47.73,45.06,29.89,11.64-14.77,8.52-45.51-12.96-63.01" style="fill:#fff;"/><path d="m182.14,261.38c-5.2-2.41-10.32-4.88-15.34-7.42l-4.77,18.91c-3.92-1.98-7.78-4-11.58-6.05l-3.16,12.52c3.8,2.05,7.66,4.07,11.58,6.05l-12.16,48.15c5.02,2.54,10.14,5.01,15.34,7.42l12.16-48.15c4.09,1.89,8.23,3.74,12.43,5.55l3.16-12.52c-4.2-1.81-8.34-3.66-12.43-5.55l4.77-18.91" style="fill:#fff;"/><path d="m224.35,265.83c-5.65-2.08-11.22-4.24-16.72-6.48l-23.08,91.38c5.44,2.21,10.96,4.35,16.56,6.42l8.38-33.17c5.22-17.39,25.72-11.01,30.68-2.59,2.84,4.82,1.76,9.89,1.18,12.61l-8.53,33.78c5.85,1.77,11.77,3.46,17.75,5.05l9.43-37.34c7.02-33.11-32.16-39.52-44.28-31.87-.34.22-.78.54-1.12.77l9.74-38.56" style="fill:#fff;"/><path d="m291.15,343.95c9.56-18.47,34.14-10.09,37.63-.62,1.08,2.94.56,5.61.24,7.2-6.16-.86-12.37-1.83-18.63-2.91-6.46-1.12-12.88-2.34-19.24-3.67m26-22.48c-45.18-6.24-53.46,32.59-40.75,49.91,13.04,17.76,52.5,23.7,66.89-1.9-5.61-.59-11.27-1.27-16.98-2.05-8.2,11.38-35.86,7.92-38.04-8.28-.28-2.11-.11-4.21.02-5.74,31.05,5.74,34.3,6.34,56.52,8.79l1.15-4.56c5.1-24.94-12.85-33.44-28.82-36.18" style="fill:#fff;"/><path d="m433.65,301.64c-5.73.27-11.55.43-17.46.47l-22.67,89.78c20.02-.15,39.08-1.6,56.93-4.27l3.66-14.48c-12.59,1.88-25.77,3.16-39.47,3.81l19.01-75.29" style="fill:#fff;"/><path d="m489.88,368.12c-15.65,3.47-14.07-13.65-7.26-24.24,8.02-12.47,25.72-19.02,27.84-7.59,1.59,8.55-6.02,27.88-20.58,31.84m12.75-50.47c-37.01,11.52-49.7,53.03-31.98,62.86,23,12.75,57.91-29.65,52.49-54.75-1.8-8.34-9.09-11.22-20.51-8.11" style="fill:#fff;"/><path d="m547.26,343.91c-9.66,5.41-9.35-5.25-6.78-13.74,5.16-17.05,19.81-29,22.86-23.59,2.97,5.27-4.5,30.11-16.08,37.33m12.75-50.47c-30.02,20.08-40.62,63.35-26.11,66.52,19.59,4.27,46.5-54.85,38.18-67.81-1.92-3-5.87-2.58-12.07,1.29" style="fill:#fff;"/><path d="m586.24,306.36c-.83,1.25-2.77,4.19-3.39,1.76-1.86-7.36,10.98-39.76,15.03-41.51,1.95.84-6.38,31.31-11.64,39.75m14-52.64c-6.26,10.84-9.62,19.68-10.72,22.58l1.9-8.67c-1.98,2.45-4.11,4.85-6.36,7.18l-22.43,88.81c2.43-2.51,4.71-5.1,6.83-7.76l9.15-36.24c.17,3.05,1.28,3.48,3.31,1.29,7.07-7.64,23.88-69.09,21.72-71.99-1.07,1.04-1.35,1.32-3.41,4.81" style="fill:#fff;"/></svg>