<svg width="819" height="525" viewBox="0 0 819 525" fill="none" xmlns="http://www.w3.org/2000/svg">
<rect x="490" width="329" height="189" fill="#F6F6F6"/>
<path d="M663 17H513V151H663V17Z" fill="white" stroke="#455255"/>
<path d="M796 17H644V151H796V17Z" stroke="#58BDF1"/>
<rect x="119" y="0.768066" width="360.572" height="188.076" fill="#F6F6F6"/>
<path d="M292.609 16.3484H141.258V151.007H292.609V16.3484Z" fill="white" stroke="#455255"/>
<path d="M269.238 35.2673H164.628V129.862H269.238V35.2673Z" fill="white" stroke="#58BDF1"/>
<path d="M183.637 178.661V170.095H186.044V178.661H183.637ZM184.846 168.99C184.489 168.99 184.182 168.873 183.925 168.639C183.673 168.401 183.547 168.117 183.547 167.786C183.547 167.459 183.673 167.178 183.925 166.944C184.182 166.706 184.489 166.587 184.846 166.587C185.204 166.587 185.51 166.706 185.762 166.944C186.018 167.178 186.146 167.459 186.146 167.786C186.146 168.117 186.018 168.401 185.762 168.639C185.51 168.873 185.204 168.99 184.846 168.99ZM190.38 173.709V178.661H187.973V170.095H190.267V171.606H190.369C190.561 171.108 190.883 170.714 191.335 170.424C191.787 170.13 192.335 169.983 192.979 169.983C193.582 169.983 194.108 170.113 194.556 170.374C195.004 170.634 195.352 171.006 195.601 171.489C195.849 171.969 195.974 172.541 195.974 173.207V178.661H193.567V173.631C193.57 173.106 193.435 172.697 193.16 172.404C192.885 172.106 192.506 171.958 192.024 171.958C191.7 171.958 191.414 172.026 191.165 172.164C190.921 172.302 190.728 172.502 190.589 172.766C190.453 173.027 190.384 173.341 190.38 173.709ZM201.793 178.829C200.903 178.829 200.139 178.643 199.499 178.271C198.862 177.895 198.372 177.375 198.029 176.709C197.69 176.044 197.521 175.278 197.521 174.411C197.521 173.534 197.692 172.764 198.035 172.102C198.381 171.437 198.873 170.918 199.51 170.547C200.147 170.171 200.903 169.983 201.781 169.983C202.538 169.983 203.202 170.119 203.77 170.39C204.339 170.662 204.79 171.043 205.121 171.534C205.452 172.024 205.635 172.601 205.669 173.263H203.397C203.334 172.835 203.164 172.491 202.889 172.231C202.618 171.967 202.261 171.835 201.821 171.835C201.448 171.835 201.122 171.935 200.843 172.136C200.568 172.333 200.354 172.621 200.199 173C200.045 173.38 199.968 173.839 199.968 174.378C199.968 174.924 200.043 175.389 200.193 175.772C200.348 176.155 200.564 176.447 200.843 176.648C201.122 176.849 201.448 176.949 201.821 176.949C202.096 176.949 202.343 176.893 202.561 176.782C202.784 176.67 202.966 176.509 203.109 176.297C203.256 176.081 203.352 175.822 203.397 175.521H205.669C205.631 176.176 205.45 176.752 205.127 177.25C204.806 177.745 204.364 178.131 203.798 178.41C203.234 178.689 202.565 178.829 201.793 178.829ZM209.617 167.239V178.661H207.21V167.239H209.617ZM217.111 175.014V170.095H219.519V178.661H217.207V177.105H217.117C216.921 177.607 216.595 178.01 216.139 178.315C215.687 178.62 215.136 178.773 214.484 178.773C213.904 178.773 213.393 178.643 212.952 178.382C212.512 178.122 212.167 177.752 211.919 177.272C211.673 176.793 211.549 176.219 211.546 175.549V170.095H213.953V175.125C213.956 175.631 214.094 176.031 214.365 176.325C214.637 176.618 215 176.765 215.456 176.765C215.746 176.765 216.017 176.7 216.27 176.57C216.522 176.436 216.725 176.239 216.88 175.979C217.038 175.718 217.115 175.396 217.111 175.014ZM224.642 178.801C223.983 178.801 223.386 178.633 222.851 178.299C222.32 177.96 221.898 177.464 221.585 176.809C221.276 176.151 221.122 175.344 221.122 174.389C221.122 173.407 221.282 172.592 221.602 171.941C221.922 171.286 222.348 170.797 222.879 170.474C223.414 170.147 224 169.983 224.637 169.983C225.123 169.983 225.527 170.065 225.852 170.229C226.179 170.389 226.443 170.589 226.643 170.831C226.846 171.069 227 171.303 227.106 171.534H227.179V167.239H229.581V178.661H227.208V177.289H227.106C226.993 177.527 226.833 177.763 226.626 177.998C226.422 178.228 226.156 178.42 225.829 178.572C225.505 178.725 225.109 178.801 224.642 178.801ZM225.405 176.91C225.793 176.91 226.121 176.806 226.388 176.597C226.66 176.386 226.867 176.09 227.01 175.711C227.157 175.332 227.23 174.888 227.23 174.378C227.23 173.869 227.158 173.426 227.016 173.051C226.873 172.675 226.665 172.385 226.394 172.18C226.123 171.976 225.793 171.874 225.405 171.874C225.01 171.874 224.676 171.98 224.405 172.192C224.134 172.404 223.928 172.697 223.789 173.073C223.65 173.449 223.58 173.883 223.58 174.378C223.58 174.876 223.65 175.317 223.789 175.7C223.932 176.079 224.138 176.377 224.405 176.592C224.676 176.804 225.01 176.91 225.405 176.91ZM235.515 178.829C234.623 178.829 233.854 178.65 233.21 178.293C232.57 177.932 232.076 177.423 231.73 176.765C231.383 176.103 231.21 175.32 231.21 174.417C231.21 173.536 231.383 172.762 231.73 172.097C232.076 171.431 232.564 170.913 233.193 170.541C233.826 170.169 234.568 169.983 235.419 169.983C235.992 169.983 236.525 170.074 237.018 170.257C237.516 170.435 237.949 170.705 238.318 171.065C238.691 171.426 238.981 171.88 239.188 172.426C239.395 172.969 239.499 173.605 239.499 174.333V174.986H232.17V173.513H237.233C237.233 173.171 237.158 172.868 237.007 172.604C236.856 172.34 236.648 172.134 236.38 171.986C236.116 171.833 235.809 171.757 235.459 171.757C235.094 171.757 234.769 171.84 234.487 172.008C234.208 172.172 233.99 172.392 233.832 172.671C233.673 172.947 233.592 173.253 233.588 173.591V174.992C233.588 175.415 233.667 175.782 233.826 176.09C233.988 176.399 234.216 176.637 234.51 176.804C234.804 176.971 235.152 177.055 235.555 177.055C235.823 177.055 236.067 177.018 236.289 176.943C236.512 176.869 236.702 176.757 236.86 176.609C237.018 176.46 237.139 176.278 237.222 176.062L239.448 176.207C239.335 176.735 239.103 177.196 238.753 177.59C238.407 177.981 237.958 178.286 237.408 178.505C236.862 178.721 236.231 178.829 235.515 178.829ZM244.268 178.801C243.609 178.801 243.012 178.633 242.477 178.299C241.946 177.96 241.524 177.464 241.211 176.809C240.903 176.151 240.748 175.344 240.748 174.389C240.748 173.407 240.908 172.592 241.228 171.941C241.548 171.286 241.974 170.797 242.505 170.474C243.04 170.147 243.626 169.983 244.262 169.983C244.749 169.983 245.154 170.065 245.477 170.229C245.805 170.389 246.069 170.589 246.268 170.831C246.472 171.069 246.626 171.303 246.732 171.534H246.805V167.239H249.207V178.661H246.834V177.289H246.732C246.619 177.527 246.459 177.763 246.251 177.998C246.048 178.228 245.783 178.42 245.455 178.572C245.131 178.725 244.735 178.801 244.268 178.801ZM245.031 176.91C245.419 176.91 245.747 176.806 246.014 176.597C246.285 176.386 246.493 176.09 246.636 175.711C246.783 175.332 246.856 174.888 246.856 174.378C246.856 173.869 246.785 173.426 246.641 173.051C246.498 172.675 246.291 172.385 246.02 172.18C245.749 171.976 245.419 171.874 245.031 171.874C244.635 171.874 244.302 171.98 244.031 172.192C243.76 172.404 243.554 172.697 243.415 173.073C243.275 173.449 243.206 173.883 243.206 174.378C243.206 174.876 243.275 175.317 243.415 175.7C243.558 176.079 243.763 176.377 244.031 176.592C244.302 176.804 244.635 176.91 245.031 176.91Z" fill="black"/>
<path d="M458.427 16.3484H307.076V151.007H458.427V16.3484Z" fill="white" stroke="#455255"/>
<path d="M458.427 35.2673H352.704V129.862H458.427V35.2673Z" fill="white" stroke="#58BDF1"/>
<path d="M347.231 178.661V170.095H349.639V178.661H347.231ZM348.441 168.99C348.083 168.99 347.776 168.873 347.519 168.639C347.267 168.401 347.141 168.117 347.141 167.786C347.141 167.459 347.267 167.178 347.519 166.944C347.776 166.706 348.083 166.587 348.441 166.587C348.798 166.587 349.104 166.706 349.356 166.944C349.613 167.178 349.74 167.459 349.74 167.786C349.74 168.117 349.613 168.401 349.356 168.639C349.104 168.873 348.798 168.99 348.441 168.99ZM353.975 173.709V178.661H351.568V170.095H353.862V171.606H353.964C354.156 171.108 354.478 170.714 354.93 170.424C355.383 170.13 355.931 169.983 356.575 169.983C357.178 169.983 357.704 170.113 358.152 170.374C358.6 170.634 358.949 171.006 359.197 171.489C359.446 171.969 359.57 172.541 359.57 173.207V178.661H357.163V173.631C357.167 173.106 357.031 172.697 356.756 172.404C356.481 172.106 356.102 171.958 355.62 171.958C355.296 171.958 355.009 172.026 354.761 172.164C354.516 172.302 354.324 172.502 354.184 172.766C354.049 173.027 353.979 173.341 353.975 173.709ZM368.692 172.538L366.487 172.671C366.449 172.486 366.368 172.318 366.244 172.17C366.12 172.017 365.956 171.896 365.752 171.807C365.553 171.714 365.313 171.668 365.034 171.668C364.661 171.668 364.347 171.746 364.091 171.902C363.834 172.054 363.706 172.259 363.706 172.515C363.706 172.72 363.789 172.893 363.955 173.034C364.121 173.175 364.405 173.289 364.809 173.374L366.38 173.687C367.224 173.857 367.853 174.133 368.267 174.512C368.682 174.891 368.889 175.389 368.889 176.007C368.889 176.568 368.721 177.061 368.386 177.484C368.054 177.908 367.599 178.239 367.018 178.477C366.442 178.711 365.777 178.829 365.023 178.829C363.874 178.829 362.958 178.592 362.277 178.12C361.598 177.644 361.201 176.997 361.084 176.179L363.452 176.057C363.523 176.403 363.697 176.667 363.972 176.849C364.247 177.027 364.599 177.116 365.029 177.116C365.451 177.116 365.79 177.036 366.046 176.877C366.306 176.713 366.438 176.503 366.442 176.247C366.438 176.031 366.346 175.854 366.165 175.716C365.984 175.575 365.705 175.467 365.328 175.393L363.825 175.098C362.977 174.93 362.346 174.64 361.932 174.227C361.521 173.815 361.316 173.289 361.316 172.649C361.316 172.099 361.466 171.625 361.768 171.227C362.073 170.829 362.501 170.523 363.051 170.307C363.605 170.091 364.253 169.983 364.995 169.983C366.091 169.983 366.954 170.212 367.583 170.669C368.217 171.127 368.586 171.749 368.692 172.538ZM374.328 178.829C373.438 178.829 372.674 178.643 372.033 178.271C371.396 177.895 370.906 177.375 370.564 176.709C370.224 176.044 370.055 175.278 370.055 174.411C370.055 173.534 370.226 172.764 370.569 172.102C370.916 171.437 371.408 170.918 372.044 170.547C372.681 170.171 373.438 169.983 374.316 169.983C375.074 169.983 375.737 170.119 376.306 170.39C376.875 170.662 377.325 171.043 377.657 171.534C377.988 172.024 378.171 172.601 378.205 173.263H375.933C375.869 172.835 375.7 172.491 375.424 172.231C375.153 171.967 374.797 171.835 374.356 171.835C373.983 171.835 373.657 171.935 373.378 172.136C373.103 172.333 372.888 172.621 372.734 173C372.579 173.38 372.502 173.839 372.502 174.378C372.502 174.924 372.578 175.389 372.728 175.772C372.883 176.155 373.099 176.447 373.378 176.648C373.657 176.849 373.983 176.949 374.356 176.949C374.631 176.949 374.878 176.893 375.096 176.782C375.319 176.67 375.502 176.509 375.645 176.297C375.792 176.081 375.887 175.822 375.933 175.521H378.205C378.167 176.176 377.986 176.752 377.662 177.25C377.342 177.745 376.899 178.131 376.334 178.41C375.769 178.689 375.1 178.829 374.328 178.829ZM379.747 178.661V170.095H382.081V171.589H382.171C382.329 171.058 382.595 170.656 382.968 170.385C383.341 170.11 383.771 169.972 384.257 169.972C384.377 169.972 384.507 169.98 384.647 169.994C384.786 170.009 384.909 170.03 385.014 170.056V172.164C384.901 172.13 384.745 172.101 384.545 172.075C384.345 172.049 384.163 172.036 383.997 172.036C383.642 172.036 383.326 172.112 383.047 172.264C382.772 172.413 382.554 172.621 382.392 172.889C382.233 173.157 382.154 173.465 382.154 173.815V178.661H379.747ZM386.259 178.661V170.095H388.666V178.661H386.259ZM387.468 168.99C387.111 168.99 386.803 168.873 386.547 168.639C386.295 168.401 386.169 168.117 386.169 167.786C386.169 167.459 386.295 167.178 386.547 166.944C386.803 166.706 387.111 166.587 387.468 166.587C387.826 166.587 388.132 166.706 388.384 166.944C388.64 167.178 388.768 167.459 388.768 167.786C388.768 168.117 388.64 168.401 388.384 168.639C388.132 168.873 387.826 168.99 387.468 168.99ZM390.64 178.661V167.239H393.048V171.534H393.122C393.227 171.303 393.38 171.069 393.579 170.831C393.783 170.589 394.047 170.389 394.371 170.229C394.698 170.065 395.106 169.983 395.592 169.983C396.225 169.983 396.809 170.147 397.344 170.474C397.879 170.797 398.306 171.286 398.627 171.941C398.947 172.592 399.107 173.407 399.107 174.389C399.107 175.344 398.951 176.151 398.638 176.809C398.329 177.464 397.907 177.96 397.372 178.299C396.841 178.633 396.245 178.801 395.586 178.801C395.119 178.801 394.721 178.725 394.394 178.572C394.069 178.42 393.804 178.228 393.596 177.998C393.389 177.763 393.231 177.527 393.122 177.289H393.014V178.661H390.64ZM392.997 174.378C392.997 174.888 393.069 175.332 393.212 175.711C393.356 176.09 393.562 176.386 393.834 176.597C394.105 176.806 394.435 176.91 394.823 176.91C395.215 176.91 395.546 176.804 395.818 176.592C396.089 176.377 396.295 176.079 396.434 175.7C396.577 175.317 396.649 174.876 396.649 174.378C396.649 173.883 396.579 173.449 396.439 173.073C396.3 172.697 396.095 172.404 395.824 172.192C395.552 171.98 395.219 171.874 394.823 171.874C394.431 171.874 394.1 171.976 393.828 172.18C393.561 172.385 393.356 172.675 393.212 173.051C393.069 173.426 392.997 173.869 392.997 174.378ZM404.67 178.829C403.777 178.829 403.009 178.65 402.364 178.293C401.723 177.932 401.23 177.423 400.883 176.765C400.537 176.103 400.363 175.32 400.363 174.417C400.363 173.536 400.537 172.762 400.883 172.097C401.23 171.431 401.718 170.913 402.347 170.541C402.98 170.169 403.722 169.983 404.574 169.983C405.147 169.983 405.68 170.074 406.173 170.257C406.671 170.435 407.104 170.705 407.473 171.065C407.846 171.426 408.136 171.88 408.344 172.426C408.551 172.969 408.655 173.605 408.655 174.333V174.986H401.324V173.513H406.388C406.388 173.171 406.313 172.868 406.162 172.604C406.012 172.34 405.802 172.134 405.535 171.986C405.271 171.833 404.964 171.757 404.614 171.757C404.248 171.757 403.924 171.84 403.641 172.008C403.363 172.172 403.144 172.392 402.986 172.671C402.827 172.947 402.746 173.253 402.743 173.591V174.992C402.743 175.415 402.822 175.782 402.98 176.09C403.142 176.399 403.37 176.637 403.664 176.804C403.958 176.971 404.307 177.055 404.709 177.055C404.977 177.055 405.222 177.018 405.444 176.943C405.666 176.869 405.857 176.757 406.015 176.609C406.173 176.46 406.294 176.278 406.377 176.062L408.604 176.207C408.491 176.735 408.259 177.196 407.909 177.59C407.562 177.981 407.113 178.286 406.563 178.505C406.017 178.721 405.386 178.829 404.67 178.829ZM413.425 178.801C412.765 178.801 412.168 178.633 411.633 178.299C411.102 177.96 410.68 177.464 410.367 176.809C410.058 176.151 409.904 175.344 409.904 174.389C409.904 173.407 410.064 172.592 410.384 171.941C410.704 171.286 411.13 170.797 411.661 170.474C412.196 170.147 412.782 169.983 413.419 169.983C413.905 169.983 414.31 170.065 414.634 170.229C414.962 170.389 415.226 170.589 415.426 170.831C415.629 171.069 415.783 171.303 415.889 171.534H415.962V167.239H418.365V178.661H415.991V177.289H415.889C415.776 177.527 415.616 177.763 415.409 177.998C415.205 178.228 414.939 178.42 414.612 178.572C414.288 178.725 413.892 178.801 413.425 178.801ZM414.188 176.91C414.576 176.91 414.904 176.806 415.171 176.597C415.443 176.386 415.65 176.09 415.793 175.711C415.94 175.332 416.013 174.888 416.013 174.378C416.013 173.869 415.942 173.426 415.799 173.051C415.656 172.675 415.448 172.385 415.177 172.18C414.906 171.976 414.576 171.874 414.188 171.874C413.792 171.874 413.459 171.98 413.188 172.192C412.916 172.404 412.711 172.697 412.571 173.073C412.432 173.449 412.362 173.883 412.362 174.378C412.362 174.876 412.432 175.317 412.571 175.7C412.715 176.079 412.92 176.377 413.188 176.592C413.459 176.804 413.792 176.91 414.188 176.91Z" fill="black"/>
<path d="M612.087 178.836V170.438H614.414V178.836H612.087ZM613.256 169.356C612.91 169.356 612.614 169.241 612.366 169.012C612.122 168.779 612 168.5 612 168.175C612 167.854 612.122 167.579 612.366 167.35C612.614 167.116 612.91 167 613.256 167C613.602 167 613.897 167.116 614.141 167.35C614.388 167.579 614.512 167.854 614.512 168.175C614.512 168.5 614.388 168.779 614.141 169.012C613.897 169.241 613.602 169.356 613.256 169.356ZM618.603 173.981V178.836H616.277V170.438H618.494V171.92H618.592C618.778 171.432 619.089 171.046 619.526 170.761C619.963 170.473 620.492 170.329 621.115 170.329C621.697 170.329 622.205 170.457 622.638 170.712C623.072 170.967 623.408 171.332 623.648 171.805C623.889 172.276 624.009 172.837 624.009 173.489V178.836H621.683V173.905C621.686 173.391 621.555 172.99 621.289 172.702C621.024 172.41 620.658 172.265 620.192 172.265C619.879 172.265 619.602 172.332 619.362 172.467C619.126 172.602 618.94 172.799 618.805 173.057C618.674 173.312 618.607 173.62 618.603 173.981ZM630.303 170.438V172.188H625.253V170.438H630.303ZM626.399 168.427H628.726V176.255C628.726 176.47 628.758 176.638 628.824 176.759C628.889 176.875 628.98 176.957 629.097 177.004C629.217 177.052 629.355 177.076 629.512 177.076C629.621 177.076 629.73 177.066 629.839 177.048C629.948 177.027 630.034 177.01 630.092 176.999L630.457 178.732C630.342 178.769 630.178 178.81 629.967 178.858C629.754 178.909 629.497 178.94 629.195 178.951C628.634 178.973 628.143 178.898 627.721 178.727C627.302 178.555 626.977 178.289 626.743 177.929C626.51 177.568 626.396 177.112 626.399 176.562V168.427ZM635.551 179C634.69 179 633.946 178.825 633.321 178.475C632.706 178.122 632.225 177.622 631.894 176.977C631.557 176.328 631.389 175.561 631.389 174.675C631.389 173.812 631.557 173.054 631.894 172.401C632.225 171.749 632.701 171.24 633.306 170.876C633.917 170.512 634.638 170.329 635.459 170.329C636.012 170.329 636.526 170.419 637.002 170.597C637.482 170.772 637.905 171.036 638.261 171.39C638.621 171.744 638.9 172.188 639.102 172.724C639.299 173.256 639.4 173.879 639.4 174.594V175.233H632.317V173.79H637.213C637.213 173.454 637.136 173.158 636.992 172.899C636.848 172.64 636.646 172.438 636.387 172.292C636.132 172.142 635.834 172.068 635.498 172.068C635.142 172.068 634.83 172.15 634.556 172.314C634.287 172.474 634.075 172.691 633.926 172.964C633.773 173.234 633.691 173.535 633.691 173.866V175.239C633.691 175.654 633.768 176.013 633.917 176.315C634.075 176.618 634.296 176.851 634.58 177.015C634.863 177.18 635.2 177.261 635.589 177.261C635.848 177.261 636.084 177.225 636.3 177.152C636.516 177.079 636.699 176.97 636.853 176.824C637.002 176.678 637.122 176.5 637.199 176.289L639.351 176.43C639.241 176.948 639.02 177.4 638.679 177.786C638.347 178.169 637.91 178.468 637.381 178.683C636.853 178.894 636.242 179 635.551 179ZM640.918 178.836V170.438H643.172V171.904H643.263C643.417 171.383 643.671 170.989 644.032 170.723C644.392 170.453 644.805 170.318 645.276 170.318C645.392 170.318 645.517 170.326 645.651 170.34C645.786 170.355 645.906 170.375 646.007 170.4V172.467C645.901 172.434 645.747 172.405 645.555 172.38C645.363 172.354 645.185 172.341 645.026 172.341C644.685 172.341 644.378 172.416 644.109 172.565C643.844 172.711 643.633 172.915 643.474 173.178C643.321 173.44 643.244 173.743 643.244 174.085V178.836H640.918ZM654.19 172.833L652.061 172.964C652.023 172.782 651.946 172.618 651.826 172.472C651.706 172.323 651.547 172.205 651.35 172.117C651.158 172.026 650.927 171.98 650.658 171.98C650.298 171.98 649.99 172.057 649.745 172.21C649.495 172.359 649.375 172.56 649.375 172.811C649.375 173.012 649.452 173.181 649.615 173.32C649.774 173.458 650.048 173.569 650.437 173.653L651.956 173.96C652.773 174.127 653.378 174.397 653.782 174.768C654.18 175.14 654.382 175.628 654.382 176.234C654.382 176.784 654.219 177.267 653.892 177.682C653.575 178.098 653.133 178.422 652.571 178.656C652.018 178.885 651.374 179 650.644 179C649.534 179 648.65 178.769 647.991 178.306C647.338 177.839 646.953 177.205 646.838 176.403L649.125 176.283C649.197 176.622 649.366 176.881 649.63 177.059C649.894 177.234 650.235 177.321 650.649 177.321C651.057 177.321 651.384 177.243 651.634 177.087C651.884 176.926 652.013 176.72 652.018 176.469C652.013 176.257 651.922 176.084 651.749 175.949C651.576 175.811 651.302 175.705 650.942 175.632L649.486 175.343C648.669 175.179 648.059 174.894 647.66 174.49C647.261 174.085 647.064 173.569 647.064 172.943C647.064 172.403 647.208 171.938 647.501 171.548C647.794 171.159 648.208 170.858 648.741 170.646C649.274 170.435 649.899 170.329 650.62 170.329C651.677 170.329 652.513 170.553 653.118 171.002C653.729 171.45 654.089 172.061 654.19 172.833ZM659.668 179C658.803 179 658.063 178.825 657.438 178.475C656.819 178.122 656.343 177.622 656.011 176.977C655.675 176.328 655.507 175.561 655.507 174.675C655.507 173.812 655.675 173.054 656.011 172.401C656.343 171.749 656.814 171.24 657.424 170.876C658.034 170.512 658.75 170.329 659.577 170.329C660.129 170.329 660.643 170.419 661.119 170.597C661.6 170.772 662.018 171.036 662.378 171.39C662.739 171.744 663.017 172.188 663.219 172.724C663.416 173.256 663.517 173.879 663.517 174.594V175.233H656.434V173.79H661.326C661.326 173.454 661.254 173.158 661.11 172.899C660.965 172.64 660.764 172.438 660.504 172.292C660.249 172.142 659.952 172.068 659.615 172.068C659.26 172.068 658.947 172.15 658.673 172.314C658.404 172.474 658.193 172.691 658.039 172.964C657.885 173.234 657.808 173.535 657.804 173.866V175.239C657.804 175.654 657.881 176.013 658.034 176.315C658.193 176.618 658.414 176.851 658.697 177.015C658.981 177.18 659.317 177.261 659.706 177.261C659.966 177.261 660.201 177.225 660.418 177.152C660.629 177.079 660.817 176.97 660.965 176.824C661.119 176.678 661.235 176.5 661.316 176.289L663.469 176.43C663.358 176.948 663.133 177.4 662.796 177.786C662.46 178.169 662.027 178.468 661.499 178.683C660.97 178.894 660.36 179 659.668 179ZM668.827 179C667.967 179 667.227 178.818 666.607 178.453C665.992 178.085 665.521 177.575 665.189 176.923C664.862 176.27 664.694 175.519 664.694 174.67C664.694 173.81 664.862 173.056 665.194 172.407C665.53 171.754 666.001 171.246 666.616 170.881C667.236 170.513 667.967 170.329 668.812 170.329C669.548 170.329 670.187 170.462 670.735 170.729C671.287 170.995 671.72 171.368 672.042 171.849C672.363 172.33 672.537 172.895 672.57 173.544H670.374C670.312 173.125 670.148 172.788 669.884 172.533C669.62 172.274 669.279 172.144 668.851 172.144C668.49 172.144 668.178 172.243 667.909 172.44C667.64 172.633 667.433 172.915 667.284 173.287C667.135 173.659 667.063 174.109 667.063 174.637C667.063 175.173 667.135 175.628 667.28 176.004C667.429 176.379 667.64 176.666 667.909 176.862C668.178 177.059 668.49 177.157 668.851 177.157C669.12 177.157 669.355 177.103 669.567 176.993C669.783 176.884 669.961 176.726 670.095 176.518C670.24 176.306 670.331 176.053 670.374 175.758H672.57C672.537 176.4 672.359 176.964 672.046 177.453C671.739 177.938 671.311 178.316 670.763 178.59C670.216 178.863 669.572 179 668.827 179ZM678.519 170.438V172.188H673.469V170.438H678.519ZM674.617 168.427H676.943V176.255C676.943 176.47 676.977 176.638 677.044 176.759C677.106 176.875 677.198 176.957 677.313 177.004C677.433 177.052 677.572 177.076 677.731 177.076C677.837 177.076 677.947 177.066 678.058 177.048C678.168 177.027 678.25 177.01 678.308 176.999L678.673 178.732C678.557 178.769 678.394 178.81 678.183 178.858C677.971 178.909 677.717 178.94 677.414 178.951C676.852 178.973 676.361 178.898 675.939 178.727C675.521 178.555 675.194 178.289 674.963 177.929C674.728 177.568 674.612 177.112 674.617 176.562V168.427ZM683.771 179C682.906 179 682.161 178.825 681.542 178.475C680.922 178.122 680.446 177.622 680.11 176.977C679.773 176.328 679.61 175.561 679.61 174.675C679.61 173.812 679.773 173.054 680.11 172.401C680.446 171.749 680.917 171.24 681.522 170.876C682.137 170.512 682.853 170.329 683.675 170.329C684.228 170.329 684.747 170.419 685.222 170.597C685.703 170.772 686.121 171.036 686.476 171.39C686.837 171.744 687.116 172.188 687.317 172.724C687.519 173.256 687.62 173.879 687.62 174.594V175.233H680.537V173.79H685.429C685.429 173.454 685.357 173.158 685.213 172.899C685.064 172.64 684.862 172.438 684.602 172.292C684.348 172.142 684.055 172.068 683.713 172.068C683.363 172.068 683.05 172.15 682.776 172.314C682.507 172.474 682.296 172.691 682.142 172.964C681.988 173.234 681.912 173.535 681.907 173.866V175.239C681.907 175.654 681.984 176.013 682.137 176.315C682.291 176.618 682.512 176.851 682.796 177.015C683.079 177.18 683.416 177.261 683.805 177.261C684.064 177.261 684.3 177.225 684.516 177.152C684.732 177.079 684.915 176.97 685.069 176.824C685.222 176.678 685.338 176.5 685.419 176.289L687.567 176.43C687.462 176.948 687.236 177.4 686.899 177.786C686.563 178.169 686.131 178.468 685.597 178.683C685.069 178.894 684.458 179 683.771 179ZM692.228 178.973C691.589 178.973 691.013 178.809 690.498 178.48C689.984 178.149 689.576 177.663 689.273 177.021C688.975 176.376 688.826 175.585 688.826 174.648C688.826 173.686 688.98 172.886 689.288 172.248C689.6 171.607 690.008 171.127 690.523 170.81C691.042 170.49 691.608 170.329 692.224 170.329C692.69 170.329 693.084 170.41 693.396 170.57C693.713 170.727 693.968 170.923 694.16 171.16C694.357 171.393 694.506 171.623 694.607 171.849H694.679V167.639H697V178.836H694.708V177.491H694.607C694.496 177.724 694.343 177.956 694.146 178.186C693.949 178.411 693.689 178.599 693.372 178.748C693.06 178.898 692.68 178.973 692.228 178.973ZM692.964 177.119C693.338 177.119 693.656 177.017 693.915 176.813C694.174 176.606 694.376 176.315 694.516 175.944C694.655 175.572 694.727 175.137 694.727 174.637C694.727 174.138 694.66 173.704 694.52 173.336C694.381 172.968 694.184 172.684 693.92 172.483C693.656 172.283 693.338 172.182 692.964 172.182C692.584 172.182 692.262 172.286 691.998 172.494C691.733 172.702 691.536 172.99 691.402 173.358C691.267 173.726 691.2 174.152 691.2 174.637C691.2 175.126 691.267 175.558 691.402 175.933C691.541 176.305 691.738 176.596 691.998 176.808C692.262 177.015 692.584 177.119 692.964 177.119Z" fill="black"/>
<rect x="119" y="199.973" width="700" height="184.738" fill="#F6F6F6"/>
<path d="M292.609 213.328H141.258V349.099H292.609V213.328Z" fill="white" stroke="#455255"/>
<path d="M443.96 213.328H292.608V349.099H443.96V213.328Z" fill="white" stroke="#58BDF1"/>
<path d="M629.811 213.328H479.572V349.099H629.811V213.328Z" fill="white" stroke="#455255"/>
<path d="M795.63 213.328H644.278V349.099H795.63V213.328Z" fill="white" stroke="#58BDF1"/>
<path d="M242.241 374.695C241.375 374.695 240.63 374.526 240.006 374.188C239.385 373.847 238.908 373.374 238.574 372.769C238.243 372.164 238.078 371.467 238.078 370.68C238.078 369.882 238.245 369.182 238.579 368.58C238.917 367.975 239.396 367.504 240.017 367.166C240.637 366.825 241.375 366.654 242.23 366.654C242.968 366.654 243.615 366.777 244.169 367.024C244.723 367.271 245.162 367.617 245.485 368.063C245.808 368.509 245.986 369.034 246.019 369.635H243.805C243.743 369.247 243.578 368.934 243.31 368.697C243.045 368.457 242.698 368.337 242.269 368.337C241.906 368.337 241.588 368.428 241.316 368.611C241.048 368.79 240.839 369.052 240.689 369.397C240.538 369.742 240.463 370.159 240.463 370.649C240.463 371.146 240.536 371.568 240.683 371.917C240.834 372.265 241.044 372.53 241.316 372.713C241.588 372.895 241.906 372.986 242.269 372.986C242.537 372.986 242.777 372.936 242.991 372.834C243.207 372.733 243.385 372.586 243.525 372.393C243.668 372.197 243.762 371.962 243.805 371.688H246.019C245.983 372.284 245.806 372.807 245.491 373.26C245.179 373.71 244.747 374.061 244.196 374.315C243.646 374.568 242.994 374.695 242.241 374.695ZM247.521 374.543V366.755H249.867V374.543H247.521ZM248.7 365.751C248.351 365.751 248.052 365.645 247.802 365.432C247.556 365.216 247.433 364.957 247.433 364.656C247.433 364.359 247.556 364.104 247.802 363.891C248.052 363.674 248.351 363.566 248.7 363.566C249.049 363.566 249.346 363.674 249.592 363.891C249.841 364.104 249.966 364.359 249.966 364.656C249.966 364.957 249.841 365.216 249.592 365.432C249.346 365.645 249.049 365.751 248.7 365.751ZM251.746 374.543V366.755H254.021V368.114H254.109C254.263 367.631 254.522 367.266 254.885 367.019C255.249 366.769 255.667 366.644 256.141 366.644C256.258 366.644 256.385 366.651 256.521 366.664C256.656 366.678 256.776 366.696 256.879 366.72V368.636C256.768 368.606 256.616 368.579 256.422 368.555C256.227 368.532 256.049 368.52 255.887 368.52C255.542 368.52 255.234 368.589 254.962 368.728C254.694 368.863 254.482 369.052 254.324 369.296C254.169 369.539 254.092 369.819 254.092 370.137V374.543H251.746ZM261.52 374.695C260.654 374.695 259.908 374.526 259.284 374.188C258.663 373.847 258.186 373.374 257.852 372.769C257.522 372.164 257.357 371.467 257.357 370.68C257.357 369.882 257.523 369.182 257.858 368.58C258.196 367.975 258.674 367.504 259.295 367.166C259.915 366.825 260.654 366.654 261.509 366.654C262.246 366.654 262.893 366.777 263.447 367.024C264.002 367.271 264.44 367.617 264.763 368.063C265.086 368.509 265.265 369.034 265.298 369.635H263.084C263.021 369.247 262.856 368.934 262.588 368.697C262.324 368.457 261.977 368.337 261.547 368.337C261.184 368.337 260.866 368.428 260.594 368.611C260.326 368.79 260.117 369.052 259.967 369.397C259.816 369.742 259.741 370.159 259.741 370.649C259.741 371.146 259.814 371.568 259.962 371.917C260.112 372.265 260.323 372.53 260.594 372.713C260.866 372.895 261.184 372.986 261.547 372.986C261.815 372.986 262.056 372.936 262.269 372.834C262.485 372.733 262.663 372.586 262.803 372.393C262.946 372.197 263.04 371.962 263.084 371.688H265.298C265.261 372.284 265.084 372.807 264.769 373.26C264.457 373.71 264.025 374.061 263.475 374.315C262.924 374.568 262.272 374.695 261.52 374.695ZM272.224 371.227V366.755H274.57V374.543H272.318V373.129H272.229C272.038 373.585 271.721 373.951 271.277 374.228C270.836 374.506 270.298 374.644 269.663 374.644C269.098 374.644 268.6 374.526 268.171 374.29C267.741 374.053 267.405 373.717 267.163 373.28C266.924 372.844 266.803 372.322 266.799 371.714V366.755H269.145V371.328C269.149 371.788 269.283 372.152 269.548 372.419C269.812 372.686 270.166 372.819 270.61 372.819C270.893 372.819 271.157 372.76 271.403 372.642C271.649 372.52 271.847 372.341 271.998 372.104C272.152 371.868 272.227 371.575 272.224 371.227ZM276.446 374.543V366.755H278.682V368.129H278.781C278.957 367.673 279.251 367.313 279.662 367.05C280.073 366.786 280.566 366.654 281.138 366.654C281.718 366.654 282.212 366.787 282.619 367.055C283.027 367.318 283.299 367.677 283.434 368.129H283.523C283.695 367.683 284.007 367.327 284.459 367.059C284.914 366.789 285.452 366.654 286.072 366.654C286.862 366.654 287.502 366.885 287.994 367.349C288.49 367.808 288.737 368.46 288.737 369.305V374.543H286.397V369.732C286.397 369.299 286.272 368.974 286.023 368.758C285.773 368.542 285.461 368.434 285.086 368.434C284.66 368.434 284.329 368.559 284.09 368.809C283.851 369.056 283.732 369.382 283.732 369.787V374.543H281.457V369.686C281.457 369.304 281.338 369 281.1 368.773C280.865 368.547 280.554 368.434 280.169 368.434C279.908 368.434 279.673 368.494 279.464 368.616C279.259 368.734 279.095 368.902 278.974 369.118C278.852 369.331 278.792 369.581 278.792 369.869V374.543H276.446ZM297.629 368.976L295.481 369.098C295.444 368.929 295.365 368.777 295.244 368.642C295.123 368.503 294.963 368.393 294.765 368.312C294.57 368.228 294.337 368.185 294.066 368.185C293.702 368.185 293.396 368.256 293.146 368.398C292.896 368.537 292.771 368.723 292.771 368.956C292.771 369.142 292.852 369.299 293.014 369.427C293.175 369.556 293.452 369.659 293.845 369.736L295.376 370.021C296.198 370.176 296.811 370.426 297.216 370.771C297.619 371.116 297.821 371.568 297.821 372.13C297.821 372.64 297.658 373.088 297.331 373.473C297.008 373.859 296.564 374.159 295.998 374.376C295.437 374.589 294.789 374.695 294.055 374.695C292.935 374.695 292.042 374.481 291.378 374.051C290.717 373.619 290.33 373.031 290.216 372.287L292.524 372.175C292.593 372.49 292.762 372.73 293.03 372.895C293.298 373.057 293.642 373.138 294.06 373.138C294.471 373.138 294.801 373.066 295.051 372.921C295.304 372.772 295.433 372.581 295.437 372.348C295.433 372.152 295.343 371.991 295.167 371.866C294.991 371.738 294.719 371.639 294.352 371.572L292.887 371.303C292.061 371.151 291.446 370.888 291.042 370.512C290.642 370.137 290.442 369.659 290.442 369.077C290.442 368.577 290.589 368.146 290.882 367.784C291.18 367.423 291.597 367.144 292.133 366.948C292.672 366.752 293.304 366.654 294.027 366.654C295.095 366.654 295.936 366.862 296.549 367.278C297.166 367.693 297.526 368.26 297.629 368.976ZM303.12 374.695C302.254 374.695 301.508 374.526 300.885 374.188C300.264 373.847 299.786 373.374 299.453 372.769C299.122 372.164 298.957 371.467 298.957 370.68C298.957 369.882 299.124 369.182 299.458 368.58C299.796 367.975 300.275 367.504 300.895 367.166C301.516 366.825 302.254 366.654 303.109 366.654C303.847 366.654 304.493 366.777 305.047 367.024C305.602 367.271 306.041 367.617 306.364 368.063C306.687 368.509 306.865 369.034 306.898 369.635H304.684C304.622 369.247 304.457 368.934 304.189 368.697C303.924 368.457 303.577 368.337 303.148 368.337C302.784 368.337 302.467 368.428 302.195 368.611C301.927 368.79 301.718 369.052 301.567 369.397C301.417 369.742 301.342 370.159 301.342 370.649C301.342 371.146 301.415 371.568 301.562 371.917C301.712 372.265 301.923 372.53 302.195 372.713C302.467 372.895 302.784 372.986 303.148 372.986C303.416 372.986 303.656 372.936 303.869 372.834C304.086 372.733 304.264 372.586 304.403 372.393C304.546 372.197 304.64 371.962 304.684 371.688H306.898C306.861 372.284 306.685 372.807 306.369 373.26C306.057 373.71 305.626 374.061 305.075 374.315C304.524 374.568 303.873 374.695 303.12 374.695ZM308.4 374.543V366.755H310.674V368.114H310.762C310.916 367.631 311.175 367.266 311.539 367.019C311.902 366.769 312.321 366.644 312.794 366.644C312.912 366.644 313.039 366.651 313.174 366.664C313.31 366.678 313.43 366.696 313.532 366.72V368.636C313.422 368.606 313.27 368.579 313.075 368.555C312.881 368.532 312.703 368.52 312.541 368.52C312.196 368.52 311.888 368.589 311.616 368.728C311.348 368.863 311.135 369.052 310.977 369.296C310.823 369.539 310.746 369.819 310.746 370.137V374.543H308.4ZM314.745 374.543V366.755H317.091V374.543H314.745ZM315.924 365.751C315.575 365.751 315.276 365.645 315.026 365.432C314.78 365.216 314.657 364.957 314.657 364.656C314.657 364.359 314.78 364.104 315.026 363.891C315.276 363.674 315.575 363.566 315.924 363.566C316.272 363.566 316.57 363.674 316.816 363.891C317.066 364.104 317.19 364.359 317.19 364.656C317.19 364.957 317.066 365.216 316.816 365.432C316.57 365.645 316.272 365.751 315.924 365.751ZM319.014 374.543V364.159H321.36V368.063H321.432C321.535 367.854 321.683 367.641 321.878 367.424C322.076 367.205 322.333 367.022 322.649 366.877C322.969 366.728 323.365 366.654 323.839 366.654C324.455 366.654 325.024 366.803 325.546 367.1C326.067 367.394 326.483 367.838 326.796 368.434C327.108 369.025 327.264 369.767 327.264 370.659C327.264 371.528 327.112 372.261 326.807 372.86C326.506 373.455 326.094 373.906 325.573 374.213C325.055 374.518 324.475 374.67 323.833 374.67C323.378 374.67 322.99 374.601 322.671 374.462C322.355 374.324 322.096 374.149 321.895 373.94C321.693 373.727 321.539 373.512 321.432 373.296H321.327V374.543H319.014ZM321.311 370.649C321.311 371.112 321.381 371.516 321.52 371.861C321.66 372.206 321.861 372.475 322.126 372.667C322.39 372.857 322.711 372.951 323.09 372.951C323.471 372.951 323.794 372.855 324.059 372.662C324.323 372.466 324.523 372.196 324.659 371.851C324.799 371.503 324.868 371.102 324.868 370.649C324.868 370.2 324.8 369.804 324.665 369.463C324.529 369.121 324.328 368.854 324.064 368.662C323.8 368.469 323.475 368.373 323.09 368.373C322.708 368.373 322.385 368.466 322.121 368.651C321.86 368.837 321.66 369.101 321.52 369.442C321.381 369.784 321.311 370.186 321.311 370.649ZM332.684 374.695C331.814 374.695 331.065 374.533 330.437 374.208C329.813 373.88 329.332 373.417 328.994 372.819C328.656 372.218 328.488 371.506 328.488 370.685C328.488 369.884 328.656 369.181 328.994 368.576C329.332 367.971 329.807 367.499 330.42 367.161C331.037 366.823 331.761 366.654 332.591 366.654C333.148 366.654 333.668 366.737 334.149 366.902C334.634 367.065 335.056 367.31 335.415 367.638C335.779 367.966 336.062 368.378 336.263 368.874C336.465 369.368 336.566 369.946 336.566 370.609V371.202H329.424V369.863H334.358C334.358 369.552 334.285 369.277 334.138 369.037C333.991 368.797 333.787 368.609 333.527 368.474C333.269 368.335 332.97 368.266 332.629 368.266C332.273 368.266 331.957 368.342 331.682 368.494C331.41 368.643 331.197 368.844 331.043 369.098C330.889 369.348 330.81 369.627 330.806 369.934V371.207C330.806 371.592 330.883 371.925 331.037 372.206C331.195 372.486 331.417 372.703 331.704 372.855C331.99 373.007 332.33 373.083 332.722 373.083C332.983 373.083 333.222 373.049 333.439 372.981C333.655 372.914 333.84 372.812 333.994 372.677C334.149 372.542 334.266 372.376 334.347 372.181L336.517 372.312C336.407 372.792 336.181 373.211 335.839 373.569C335.502 373.925 335.065 374.202 334.529 374.401C333.996 374.597 333.381 374.695 332.684 374.695ZM341.214 374.67C340.571 374.67 339.99 374.518 339.469 374.213C338.951 373.906 338.54 373.455 338.235 372.86C337.934 372.261 337.784 371.528 337.784 370.659C337.784 369.767 337.94 369.025 338.252 368.434C338.563 367.838 338.979 367.394 339.496 367.1C340.017 366.803 340.588 366.654 341.209 366.654C341.682 366.654 342.077 366.728 342.393 366.877C342.712 367.022 342.969 367.205 343.164 367.424C343.362 367.641 343.513 367.854 343.615 368.063H343.687V364.159H346.027V374.543H343.714V373.296H343.615C343.505 373.512 343.349 373.727 343.147 373.94C342.949 374.149 342.69 374.324 342.371 374.462C342.055 374.601 341.67 374.67 341.214 374.67ZM341.957 372.951C342.336 372.951 342.655 372.857 342.916 372.667C343.18 372.475 343.382 372.206 343.521 371.861C343.665 371.516 343.736 371.112 343.736 370.649C343.736 370.186 343.667 369.784 343.527 369.442C343.388 369.101 343.185 368.837 342.921 368.651C342.657 368.466 342.336 368.373 341.957 368.373C341.572 368.373 341.247 368.469 340.983 368.662C340.718 368.854 340.519 369.121 340.382 369.463C340.247 369.804 340.179 370.2 340.179 370.649C340.179 371.102 340.247 371.503 340.382 371.851C340.522 372.196 340.722 372.466 340.983 372.662C341.247 372.855 341.572 372.951 341.957 372.951Z" fill="black"/>
<path d="M607.203 369.514L605.047 369.636C605.01 369.467 604.931 369.314 604.809 369.178C604.688 369.039 604.528 368.929 604.328 368.848C604.133 368.763 603.899 368.72 603.626 368.72C603.262 368.72 602.954 368.792 602.704 368.934C602.453 369.073 602.328 369.26 602.328 369.494C602.328 369.681 602.408 369.838 602.571 369.967C602.733 370.096 603.011 370.2 603.406 370.278L604.942 370.563C605.768 370.719 606.383 370.97 606.788 371.316C607.194 371.662 607.396 372.117 607.396 372.68C607.396 373.192 607.232 373.642 606.905 374.028C606.58 374.415 606.135 374.717 605.567 374.934C605.003 375.148 604.353 375.255 603.616 375.255C602.492 375.255 601.596 375.04 600.929 374.609C600.266 374.174 599.877 373.584 599.763 372.838L602.079 372.726C602.149 373.041 602.318 373.282 602.587 373.448C602.856 373.611 603.201 373.693 603.621 373.693C604.034 373.693 604.365 373.62 604.616 373.474C604.87 373.324 604.999 373.133 605.003 372.899C604.999 372.702 604.909 372.541 604.732 372.415C604.555 372.286 604.283 372.188 603.914 372.12L602.443 371.85C601.615 371.698 600.997 371.433 600.592 371.056C600.19 370.68 599.989 370.2 599.989 369.616C599.989 369.114 600.137 368.681 600.432 368.318C600.73 367.955 601.149 367.675 601.687 367.478C602.228 367.282 602.862 367.183 603.588 367.183C604.66 367.183 605.504 367.392 606.119 367.809C606.739 368.227 607.1 368.795 607.203 369.514ZM612.749 375.255C611.875 375.255 611.123 375.092 610.494 374.767C609.867 374.437 609.384 373.972 609.045 373.372C608.706 372.768 608.537 372.054 608.537 371.229C608.537 370.425 608.706 369.72 609.045 369.112C609.384 368.505 609.862 368.032 610.477 367.692C611.096 367.353 611.822 367.183 612.655 367.183C613.215 367.183 613.736 367.267 614.219 367.433C614.706 367.596 615.129 367.842 615.49 368.171C615.855 368.5 616.139 368.914 616.341 369.412C616.544 369.908 616.646 370.488 616.646 371.153V371.748H609.476V370.405H614.429C614.429 370.093 614.355 369.816 614.208 369.575C614.061 369.334 613.856 369.146 613.595 369.011C613.336 368.871 613.036 368.802 612.693 368.802C612.336 368.802 612.019 368.878 611.743 369.031C611.47 369.18 611.256 369.382 611.102 369.636C610.947 369.887 610.868 370.167 610.864 370.476V371.754C610.864 372.14 610.941 372.475 611.096 372.756C611.254 373.038 611.477 373.255 611.765 373.408C612.052 373.56 612.393 373.637 612.788 373.637C613.049 373.637 613.289 373.603 613.506 373.535C613.723 373.467 613.909 373.365 614.064 373.229C614.219 373.094 614.337 372.928 614.418 372.731L616.596 372.863C616.485 373.345 616.259 373.766 615.916 374.125C615.577 374.482 615.139 374.76 614.601 374.96C614.066 375.157 613.449 375.255 612.749 375.255ZM618.183 378.034V367.285H620.504V368.598H620.609C620.712 368.388 620.861 368.174 621.057 367.957C621.256 367.736 621.514 367.553 621.831 367.407C622.151 367.258 622.549 367.183 623.025 367.183C623.644 367.183 624.215 367.333 624.738 367.631C625.262 367.926 625.68 368.372 625.993 368.97C626.306 369.564 626.463 370.308 626.463 371.204C626.463 372.076 626.31 372.812 626.004 373.413C625.702 374.01 625.289 374.463 624.766 374.771C624.246 375.077 623.664 375.23 623.019 375.23C622.562 375.23 622.173 375.16 621.853 375.021C621.536 374.882 621.276 374.707 621.074 374.497C620.871 374.283 620.716 374.067 620.609 373.851H620.537V378.034H618.183ZM620.487 371.194C620.487 371.659 620.557 372.064 620.698 372.41C620.838 372.756 621.04 373.026 621.306 373.219C621.571 373.409 621.893 373.504 622.273 373.504C622.656 373.504 622.98 373.408 623.246 373.214C623.511 373.018 623.712 372.746 623.848 372.4C623.988 372.051 624.058 371.648 624.058 371.194C624.058 370.742 623.99 370.346 623.854 370.003C623.717 369.66 623.516 369.392 623.251 369.199C622.986 369.005 622.66 368.908 622.273 368.908C621.89 368.908 621.565 369.002 621.3 369.188C621.039 369.375 620.838 369.64 620.698 369.982C620.557 370.325 620.487 370.729 620.487 371.194ZM630.453 375.25C629.913 375.25 629.431 375.163 629.006 374.99C628.582 374.814 628.247 374.555 627.999 374.212C627.756 373.866 627.635 373.435 627.635 372.919C627.635 372.485 627.721 372.12 627.894 371.825C628.068 371.53 628.303 371.292 628.602 371.112C628.901 370.932 629.24 370.797 629.621 370.705C630 370.613 630.404 370.549 630.822 370.512C631.318 370.464 631.717 370.42 632.019 370.38C632.32 370.335 632.539 370.271 632.676 370.186C632.812 370.101 632.88 369.976 632.88 369.81V369.779C632.88 369.457 632.768 369.207 632.549 369.031C632.33 368.854 632.024 368.766 631.62 368.766C631.197 368.766 630.861 368.852 630.608 369.026C630.36 369.196 630.19 369.409 630.112 369.667L627.933 369.504C628.044 369.029 628.261 368.619 628.586 368.272C628.91 367.923 629.328 367.655 629.84 367.469C630.355 367.278 630.954 367.183 631.63 367.183C632.102 367.183 632.554 367.234 632.987 367.336C633.42 367.438 633.804 367.596 634.14 367.809C634.48 368.023 634.748 368.298 634.942 368.634C635.137 368.966 635.234 369.365 635.234 369.83V375.102H633.001V374.019H632.938C632.797 374.263 632.617 374.478 632.389 374.665C632.16 374.848 631.888 374.992 631.566 375.098C631.245 375.199 630.876 375.25 630.453 375.25ZM631.129 373.754C631.474 373.754 631.781 373.691 632.048 373.565C632.311 373.436 632.52 373.263 632.671 373.046C632.822 372.829 632.899 372.583 632.899 372.308V371.479C632.822 371.523 632.724 371.563 632.593 371.601C632.466 371.635 632.325 371.667 632.17 371.698C632.009 371.725 631.849 371.75 631.693 371.774C631.532 371.794 631.391 371.813 631.26 371.83C630.983 371.867 630.744 371.927 630.535 372.008C630.331 372.09 630.17 372.2 630.054 372.339C629.942 372.475 629.883 372.644 629.883 372.848C629.883 373.143 630 373.369 630.234 373.525C630.467 373.677 630.769 373.754 631.129 373.754ZM637.063 375.102V367.285H639.345V368.649H639.432C639.588 368.164 639.851 367.797 640.215 367.55C640.58 367.299 640.999 367.173 641.475 367.173C641.592 367.173 641.718 367.18 641.855 367.194C641.991 367.207 642.113 367.226 642.215 367.25V369.173C642.103 369.143 641.952 369.116 641.757 369.092C641.558 369.068 641.383 369.056 641.217 369.056C640.872 369.056 640.566 369.126 640.288 369.265C640.021 369.401 639.807 369.591 639.651 369.835C639.495 370.079 639.418 370.361 639.418 370.68V375.102H637.063ZM645.61 375.25C645.07 375.25 644.584 375.163 644.16 374.99C643.737 374.814 643.402 374.555 643.153 374.212C642.91 373.866 642.789 373.435 642.789 372.919C642.789 372.485 642.876 372.12 643.051 371.825C643.222 371.53 643.46 371.292 643.757 371.112C644.058 370.932 644.394 370.797 644.773 370.705C645.158 370.613 645.561 370.549 645.98 370.512C646.476 370.464 646.87 370.42 647.171 370.38C647.478 370.335 647.697 370.271 647.833 370.186C647.969 370.101 648.037 369.976 648.037 369.81V369.779C648.037 369.457 647.925 369.207 647.707 369.031C647.488 368.854 647.176 368.766 646.777 368.766C646.354 368.766 646.014 368.852 645.766 369.026C645.513 369.196 645.347 369.409 645.265 369.667L643.09 369.504C643.197 369.029 643.416 368.619 643.742 368.272C644.063 367.923 644.481 367.655 644.997 367.469C645.513 367.278 646.111 367.183 646.787 367.183C647.259 367.183 647.711 367.234 648.139 367.336C648.577 367.438 648.962 367.596 649.297 367.809C649.638 368.023 649.9 368.298 650.1 368.634C650.294 368.966 650.392 369.365 650.392 369.83V375.102H648.159V374.019H648.091C647.955 374.263 647.775 374.478 647.546 374.665C647.317 374.848 647.04 374.992 646.719 375.098C646.398 375.199 646.028 375.25 645.61 375.25ZM646.286 373.754C646.632 373.754 646.938 373.691 647.201 373.565C647.468 373.436 647.677 373.263 647.828 373.046C647.979 372.829 648.052 372.583 648.052 372.308V371.479C647.979 371.523 647.877 371.563 647.75 371.601C647.624 371.635 647.483 371.667 647.322 371.698C647.167 371.725 647.006 371.75 646.845 371.774C646.69 371.794 646.544 371.813 646.417 371.83C646.14 371.867 645.897 371.927 645.693 372.008C645.488 372.09 645.328 372.2 645.211 372.339C645.099 372.475 645.041 372.644 645.041 372.848C645.041 373.143 645.158 373.369 645.386 373.525C645.625 373.677 645.921 373.754 646.286 373.754ZM656.735 367.285V368.914H651.622V367.285H656.735ZM652.78 365.412H655.134V372.7C655.134 372.9 655.168 373.057 655.237 373.169C655.305 373.277 655.392 373.354 655.514 373.397C655.635 373.442 655.772 373.464 655.932 373.464C656.044 373.464 656.156 373.455 656.263 373.438C656.375 373.418 656.458 373.403 656.521 373.392L656.89 375.006C656.769 375.04 656.603 375.079 656.389 375.123C656.175 375.171 655.918 375.199 655.611 375.209C655.042 375.23 654.546 375.16 654.118 375.001C653.695 374.841 653.364 374.594 653.13 374.258C652.892 373.922 652.78 373.498 652.78 372.985V365.412ZM662.047 375.255C661.171 375.255 660.422 375.092 659.79 374.767C659.162 374.437 658.681 373.972 658.345 373.372C658.004 372.768 657.834 372.054 657.834 371.229C657.834 370.425 658.004 369.72 658.345 369.112C658.681 368.505 659.157 368.032 659.775 367.692C660.393 367.353 661.118 367.183 661.954 367.183C662.514 367.183 663.034 367.267 663.516 367.433C664.002 367.596 664.425 367.842 664.79 368.171C665.155 368.5 665.437 368.914 665.641 369.412C665.841 369.908 665.943 370.488 665.943 371.153V371.748H658.773V370.405H663.725C663.725 370.093 663.652 369.816 663.506 369.575C663.36 369.334 663.156 369.146 662.893 369.011C662.635 368.871 662.334 368.802 661.993 368.802C661.633 368.802 661.317 368.878 661.04 369.031C660.767 369.18 660.553 369.382 660.398 369.636C660.242 369.887 660.164 370.167 660.159 370.476V371.754C660.159 372.14 660.237 372.475 660.393 372.756C660.553 373.038 660.777 373.255 661.064 373.408C661.351 373.56 661.692 373.637 662.086 373.637C662.348 373.637 662.587 373.603 662.806 373.535C663.02 373.467 663.209 373.365 663.36 373.229C663.516 373.094 663.632 372.928 663.715 372.731L665.894 372.863C665.783 373.345 665.554 373.766 665.213 374.125C664.873 374.482 664.435 374.76 663.9 374.96C663.365 375.157 662.747 375.255 662.047 375.255ZM670.608 375.23C669.966 375.23 669.377 375.077 668.857 374.771C668.336 374.463 667.923 374.01 667.616 373.413C667.315 372.812 667.164 372.076 667.164 371.204C667.164 370.308 667.32 369.564 667.636 368.97C667.947 368.372 668.366 367.926 668.886 367.631C669.407 367.333 669.981 367.183 670.603 367.183C671.08 367.183 671.474 367.258 671.79 367.407C672.111 367.553 672.369 367.736 672.563 367.957C672.763 368.174 672.914 368.388 673.021 368.598H673.089V364.679H675.438V375.102H673.118V373.851H673.021C672.909 374.067 672.753 374.283 672.549 374.497C672.349 374.707 672.092 374.882 671.771 375.021C671.454 375.16 671.065 375.23 670.608 375.23ZM671.357 373.504C671.737 373.504 672.053 373.409 672.315 373.219C672.583 373.026 672.782 372.756 672.923 372.41C673.069 372.064 673.142 371.659 673.142 371.194C673.142 370.729 673.069 370.325 672.928 369.982C672.792 369.64 672.588 369.375 672.32 369.188C672.058 369.002 671.737 368.908 671.357 368.908C670.968 368.908 670.642 369.005 670.375 369.199C670.112 369.392 669.912 369.66 669.776 370.003C669.635 370.346 669.567 370.742 669.567 371.194C669.567 371.648 669.635 372.051 669.776 372.4C669.912 372.746 670.117 373.018 670.375 373.214C670.642 373.408 670.968 373.504 671.357 373.504Z" fill="black"/>
<path d="M124.18 503.38H121.62V518H130.3V515.64H124.18V503.38ZM134.962 518.26C136.502 518.26 137.842 517.56 138.262 516.54L138.442 518H140.582V512C140.582 509.26 138.942 507.82 136.282 507.82C133.602 507.82 131.842 509.22 131.842 511.36H133.922C133.922 510.32 134.722 509.72 136.162 509.72C137.402 509.72 138.202 510.26 138.202 511.6V511.82L135.242 512.04C132.902 512.22 131.582 513.36 131.582 515.18C131.582 517.04 132.862 518.26 134.962 518.26ZM135.762 516.42C134.662 516.42 134.062 515.98 134.062 515.08C134.062 514.28 134.642 513.78 136.162 513.64L138.222 513.48V514C138.222 515.52 137.262 516.42 135.762 516.42ZM141.845 522.58C142.385 522.72 142.985 522.8 143.665 522.8C145.285 522.8 146.325 522.04 147.065 520.2L151.905 508.12H149.385L146.705 515.32L144.165 508.12H141.585L145.565 518.42L145.285 519.16C144.865 520.32 144.265 520.54 143.305 520.54H141.845V522.58ZM157.262 518.26C159.842 518.26 161.642 516.96 162.062 514.8H159.802C159.522 515.74 158.642 516.26 157.302 516.26C155.682 516.26 154.762 515.38 154.582 513.64L162.022 513.62V512.88C162.022 509.8 160.142 507.82 157.182 507.82C154.282 507.82 152.262 509.96 152.262 513.06C152.262 516.12 154.322 518.26 157.262 518.26ZM157.202 509.82C158.662 509.82 159.602 510.72 159.602 512.08H154.642C154.882 510.6 155.762 509.82 157.202 509.82ZM170.175 508.08C169.775 507.98 169.435 507.94 169.095 507.94C167.775 507.94 166.835 508.6 166.415 509.58L166.275 508.14H163.975V518H166.415V513.2C166.415 511.28 167.515 510.34 169.275 510.34H170.175V508.08ZM173.046 506.14C173.846 506.14 174.506 505.48 174.506 504.66C174.506 503.84 173.846 503.2 173.046 503.2C172.206 503.2 171.546 503.84 171.546 504.66C171.546 505.48 172.206 506.14 173.046 506.14ZM171.826 518H174.266V508.12H171.826V518ZM179.227 518V512.68C179.227 511.08 180.147 510.04 181.647 510.04C182.907 510.04 183.727 510.84 183.727 512.5V518H186.167V511.92C186.167 509.36 184.887 507.82 182.407 507.82C181.067 507.82 179.867 508.4 179.247 509.4L179.047 508.12H176.787V518H179.227ZM188.005 512.84C188.005 515.7 189.845 517.8 192.645 517.8C194.065 517.8 195.285 517.22 195.905 516.3V517.94C195.905 519.58 194.825 520.64 193.145 520.64C191.645 520.64 190.665 519.88 190.505 518.6H188.065C188.365 521.24 190.305 522.86 193.145 522.86C196.345 522.86 198.325 520.8 198.325 517.5V508.12H196.065L195.925 509.48C195.345 508.42 194.185 507.8 192.705 507.8C189.885 507.8 188.005 509.96 188.005 512.84ZM190.465 512.78C190.465 511.16 191.505 509.94 193.125 509.94C194.825 509.94 195.845 511.1 195.845 512.78C195.845 514.5 194.805 515.68 193.125 515.68C191.525 515.68 190.465 514.44 190.465 512.78ZM202.41 510.56C203.09 510.56 203.67 509.98 203.67 509.32C203.67 508.64 203.09 508.08 202.41 508.08C201.73 508.08 201.15 508.64 201.15 509.32C201.15 509.98 201.73 510.56 202.41 510.56ZM202.41 518.22C203.09 518.22 203.67 517.66 203.67 517C203.67 516.32 203.09 515.74 202.41 515.74C201.73 515.74 201.15 516.32 201.15 517C201.15 517.66 201.73 518.22 202.41 518.22ZM214.041 518V509.2H215.981V508.4H214.041V505.36H213.121V508.4H211.181V509.2H213.121V518H214.041ZM219.887 518H220.827L223.107 511.14C223.267 510.68 223.427 510.16 223.567 509.6C223.707 510.24 223.847 510.68 224.007 511.14L226.287 518H227.227L230.447 508.4H229.507L227.327 514.92C226.927 516.14 226.987 515.98 226.767 516.8C226.567 516.06 226.387 515.5 226.187 514.92L224.027 508.4H223.087L220.927 514.92C220.907 514.96 220.527 516.1 220.367 516.82C220.167 516.08 219.987 515.5 219.787 514.92L217.627 508.4H216.687L219.887 518ZM231.152 513.2C231.152 516.1 233.172 518.24 235.912 518.24C238.652 518.24 240.672 516.1 240.672 513.2C240.672 510.3 238.652 508.16 235.912 508.16C233.172 508.16 231.152 510.3 231.152 513.2ZM232.092 513.2C232.092 510.74 233.672 509 235.912 509C238.152 509 239.732 510.74 239.732 513.2C239.732 515.66 238.152 517.4 235.912 517.4C233.672 517.4 232.092 515.66 232.092 513.2ZM247.87 513.24C247.87 516.24 249.67 518.24 252.31 518.24C254.35 518.24 255.99 517.04 256.51 515.22H255.57C255.13 516.52 253.85 517.4 252.31 517.4C250.17 517.4 248.77 515.7 248.77 513.22C248.77 510.62 250.29 508.98 252.43 508.98C253.85 508.98 255.13 509.78 255.53 511.2H256.47C256.03 509.38 254.49 508.16 252.43 508.16C249.67 508.16 247.87 510.2 247.87 513.24ZM258.007 513.2C258.007 516.1 260.027 518.24 262.767 518.24C265.507 518.24 267.527 516.1 267.527 513.2C267.527 510.3 265.507 508.16 262.767 508.16C260.027 508.16 258.007 510.3 258.007 513.2ZM258.947 513.2C258.947 510.74 260.527 509 262.767 509C265.007 509 266.587 510.74 266.587 513.2C266.587 515.66 265.007 517.4 262.767 517.4C260.527 517.4 258.947 515.66 258.947 513.2ZM270.76 518V511.84C270.76 510.4 271.76 509 273.58 509C275.18 509 276.18 510.06 276.18 511.82V518H277.08V511.86C277.08 510.42 278.08 509 279.9 509C281.5 509 282.5 510.08 282.5 511.84V518H283.38V511.72C283.38 509.48 281.96 508.16 279.98 508.16C278.38 508.16 277.22 509 276.8 510.32C276.38 509 275.2 508.16 273.66 508.16C272.32 508.16 271.22 508.78 270.72 509.88L270.58 508.4H269.84V518H270.76ZM286.305 522.06H287.225V515.92C287.925 517.48 289.245 518.24 290.945 518.24C293.765 518.24 295.365 516.04 295.365 513.2C295.365 510.36 293.765 508.16 290.945 508.16C289.285 508.16 287.905 508.92 287.185 510.56L287.045 508.4H286.305V522.06ZM287.245 513.2C287.245 510.76 288.545 509 290.845 509C293.125 509 294.425 510.76 294.425 513.2C294.425 515.62 293.125 517.4 290.845 517.4C288.545 517.4 287.245 515.62 287.245 513.2ZM296.972 513.2C296.972 516.1 298.992 518.24 301.732 518.24C304.472 518.24 306.492 516.1 306.492 513.2C306.492 510.3 304.472 508.16 301.732 508.16C298.992 508.16 296.972 510.3 296.972 513.2ZM297.912 513.2C297.912 510.74 299.492 509 301.732 509C303.972 509 305.552 510.74 305.552 513.2C305.552 515.66 303.972 517.4 301.732 517.4C299.492 517.4 297.912 515.66 297.912 513.2ZM309.725 518V513.04C309.725 510.62 310.945 509 313.125 509C314.865 509 315.965 509.8 315.965 512.34V518H316.885V512.16C316.885 509.76 315.865 508.16 313.145 508.16C311.705 508.16 310.385 508.92 309.745 510.26L309.545 508.4H308.805V518H309.725ZM323.701 518.24C325.861 518.24 327.241 517.22 327.801 515.24H326.861C326.481 516.66 325.401 517.4 323.701 517.4C321.441 517.4 320.081 515.84 320.001 513.22H327.801V512.58C327.801 509.96 326.081 508.16 323.581 508.16C320.901 508.16 319.081 510.22 319.081 513.22C319.081 516.24 320.921 518.24 323.701 518.24ZM323.581 509C325.561 509 326.861 510.38 326.861 512.46H320.021C320.241 510.36 321.621 509 323.581 509ZM331.034 518V513.04C331.034 510.62 332.254 509 334.434 509C336.174 509 337.274 509.8 337.274 512.34V518H338.194V512.16C338.194 509.76 337.174 508.16 334.454 508.16C333.014 508.16 331.694 508.92 331.054 510.26L330.854 508.4H330.114V518H331.034ZM342.85 518V509.2H344.79V508.4H342.85V505.36H341.93V508.4H339.99V509.2H341.93V518H342.85ZM345.855 515.4C345.855 517.14 347.155 518.24 349.195 518.24C351.295 518.24 352.695 517.14 352.695 515.5C352.695 514.16 351.955 513.38 350.275 512.94L348.675 512.52C347.515 512.22 346.955 511.64 346.955 510.82C346.955 509.64 347.795 509 349.335 509C350.775 509 351.655 509.72 351.715 510.96H352.615C352.555 509.22 351.315 508.16 349.335 508.16C347.355 508.16 346.035 509.22 346.035 510.82C346.035 512 346.815 512.92 348.455 513.34L350.075 513.76C351.315 514.08 351.775 514.56 351.775 515.5C351.775 516.68 350.775 517.4 349.155 517.4C347.675 517.4 346.755 516.64 346.755 515.4H345.855ZM363.478 518.24C365.138 518.24 366.478 517.5 367.138 516.2L367.318 518H368.058V511.64C368.058 509.16 366.418 508.16 364.358 508.16C362.098 508.16 360.578 509.36 360.578 511.24H361.498C361.498 509.84 362.558 509 364.338 509C365.858 509 367.138 509.62 367.138 511.78V512.14L363.838 512.4C361.598 512.58 360.238 513.7 360.238 515.46C360.238 517.1 361.418 518.24 363.478 518.24ZM363.598 517.42C362.158 517.42 361.158 516.76 361.158 515.44C361.158 514.26 361.978 513.32 363.918 513.16L367.138 512.9V513.42C367.138 515.78 365.858 517.42 363.598 517.42ZM375.553 508.26C375.233 508.18 375.013 508.16 374.713 508.16C373.353 508.16 372.293 508.86 371.913 509.94L371.833 508.4H370.973V518H371.893V512.16C371.893 510.36 373.053 509.06 374.833 509.06H375.553V508.26ZM380.986 518.24C383.146 518.24 384.526 517.22 385.086 515.24H384.146C383.766 516.66 382.686 517.4 380.986 517.4C378.726 517.4 377.366 515.84 377.286 513.22H385.086V512.58C385.086 509.96 383.366 508.16 380.866 508.16C378.186 508.16 376.366 510.22 376.366 513.22C376.366 516.24 378.206 518.24 380.986 518.24ZM380.866 509C382.846 509 384.146 510.38 384.146 512.46H377.306C377.526 510.36 378.906 509 380.866 509ZM393.464 505.46C393.904 505.46 394.304 505.08 394.304 504.64C394.304 504.18 393.904 503.78 393.464 503.78C393.004 503.78 392.624 504.18 392.624 504.64C392.624 505.08 393.004 505.46 393.464 505.46ZM393.004 518H393.924V508.4H393.004V518ZM397.889 518V513.04C397.889 510.62 399.109 509 401.289 509C403.029 509 404.129 509.8 404.129 512.34V518H405.049V512.16C405.049 509.76 404.029 508.16 401.309 508.16C399.869 508.16 398.549 508.92 397.909 510.26L397.709 508.4H396.969V518H397.889ZM407.245 513.24C407.245 516.24 409.045 518.24 411.685 518.24C413.725 518.24 415.365 517.04 415.885 515.22H414.945C414.505 516.52 413.225 517.4 411.685 517.4C409.545 517.4 408.145 515.7 408.145 513.22C408.145 510.62 409.665 508.98 411.805 508.98C413.225 508.98 414.505 509.78 414.905 511.2H415.845C415.405 509.38 413.865 508.16 411.805 508.16C409.045 508.16 407.245 510.2 407.245 513.24ZM419.102 518V503.56H418.182V518H419.102ZM429.063 508.4V513.52C429.063 516 427.823 517.4 425.803 517.4C424.203 517.4 423.043 516.54 423.043 514.08V508.38H422.103V514.32C422.103 516.66 423.283 518.24 425.583 518.24C427.183 518.24 428.543 517.42 429.063 516.22L429.243 518H429.983V508.4H429.063ZM436.529 518.24C438.189 518.24 439.569 517.48 440.289 515.84L440.429 518H441.169V503.56H440.249V510.48C439.549 508.92 438.229 508.16 436.529 508.16C433.709 508.16 432.109 510.36 432.109 513.2C432.109 516.04 433.709 518.24 436.529 518.24ZM436.629 517.4C434.349 517.4 433.049 515.64 433.049 513.2C433.049 510.78 434.349 509 436.629 509C438.929 509 440.229 510.78 440.229 513.2C440.229 515.64 438.929 517.4 436.629 517.4ZM448.115 518.24C450.275 518.24 451.655 517.22 452.215 515.24H451.275C450.895 516.66 449.815 517.4 448.115 517.4C445.855 517.4 444.495 515.84 444.415 513.22H452.215V512.58C452.215 509.96 450.495 508.16 447.995 508.16C445.315 508.16 443.495 510.22 443.495 513.22C443.495 516.24 445.335 518.24 448.115 518.24ZM447.995 509C449.975 509 451.275 510.38 451.275 512.46H444.435C444.655 510.36 446.035 509 447.995 509ZM458.228 518.24C459.888 518.24 461.268 517.48 461.988 515.84L462.128 518H462.868V503.56H461.948V510.48C461.248 508.92 459.928 508.16 458.228 508.16C455.408 508.16 453.808 510.36 453.808 513.2C453.808 516.04 455.408 518.24 458.228 518.24ZM458.328 517.4C456.048 517.4 454.748 515.64 454.748 513.2C454.748 510.78 456.048 509 458.328 509C460.628 509 461.928 510.78 461.928 513.2C461.928 515.64 460.628 517.4 458.328 517.4ZM470.8 513.2C470.8 516.1 472.82 518.24 475.56 518.24C478.3 518.24 480.32 516.1 480.32 513.2C480.32 510.3 478.3 508.16 475.56 508.16C472.82 508.16 470.8 510.3 470.8 513.2ZM471.74 513.2C471.74 510.74 473.32 509 475.56 509C477.8 509 479.38 510.74 479.38 513.2C479.38 515.66 477.8 517.4 475.56 517.4C473.32 517.4 471.74 515.66 471.74 513.2ZM487.213 508.26C486.893 508.18 486.673 508.16 486.373 508.16C485.013 508.16 483.953 508.86 483.573 509.94L483.493 508.4H482.633V518H483.553V512.16C483.553 510.36 484.713 509.06 486.493 509.06H487.213V508.26ZM495.203 505.46C495.643 505.46 496.043 505.08 496.043 504.64C496.043 504.18 495.643 503.78 495.203 503.78C494.743 503.78 494.363 504.18 494.363 504.64C494.363 505.08 494.743 505.46 495.203 505.46ZM494.743 518H495.663V508.4H494.743V518ZM499.628 518V513.04C499.628 510.62 500.848 509 503.028 509C504.768 509 505.868 509.8 505.868 512.34V518H506.788V512.16C506.788 509.76 505.768 508.16 503.048 508.16C501.608 508.16 500.288 508.92 499.648 510.26L499.448 508.4H498.708V518H499.628ZM508.726 515.4C508.726 517.14 510.026 518.24 512.066 518.24C514.166 518.24 515.566 517.14 515.566 515.5C515.566 514.16 514.826 513.38 513.146 512.94L511.546 512.52C510.386 512.22 509.826 511.64 509.826 510.82C509.826 509.64 510.666 509 512.206 509C513.646 509 514.526 509.72 514.586 510.96H515.486C515.426 509.22 514.186 508.16 512.206 508.16C510.226 508.16 508.906 509.22 508.906 510.82C508.906 512 509.686 512.92 511.326 513.34L512.946 513.76C514.186 514.08 514.646 514.56 514.646 515.5C514.646 516.68 513.646 517.4 512.026 517.4C510.546 517.4 509.626 516.64 509.626 515.4H508.726ZM517.304 513.24C517.304 516.24 519.104 518.24 521.744 518.24C523.784 518.24 525.424 517.04 525.944 515.22H525.004C524.564 516.52 523.284 517.4 521.744 517.4C519.604 517.4 518.204 515.7 518.204 513.22C518.204 510.62 519.724 508.98 521.864 508.98C523.284 508.98 524.564 509.78 524.964 511.2H525.904C525.464 509.38 523.924 508.16 521.864 508.16C519.104 508.16 517.304 510.2 517.304 513.24ZM532.741 508.26C532.421 508.18 532.201 508.16 531.901 508.16C530.541 508.16 529.481 508.86 529.101 509.94L529.021 508.4H528.161V518H529.081V512.16C529.081 510.36 530.241 509.06 532.021 509.06H532.741V508.26ZM535.125 505.46C535.565 505.46 535.965 505.08 535.965 504.64C535.965 504.18 535.565 503.78 535.125 503.78C534.665 503.78 534.285 504.18 534.285 504.64C534.285 505.08 534.665 505.46 535.125 505.46ZM534.665 518H535.585V508.4H534.665V518ZM539.369 518L539.509 515.84C540.229 517.48 541.609 518.24 543.269 518.24C546.089 518.24 547.689 516.04 547.689 513.2C547.689 510.36 546.089 508.16 543.269 508.16C541.569 508.16 540.249 508.92 539.549 510.48V503.56H538.629V518H539.369ZM539.569 513.2C539.569 510.78 540.869 509 543.169 509C545.449 509 546.749 510.78 546.749 513.2C546.749 515.64 545.449 517.4 543.169 517.4C540.869 517.4 539.569 515.64 539.569 513.2ZM553.916 518.24C556.076 518.24 557.456 517.22 558.016 515.24H557.076C556.696 516.66 555.616 517.4 553.916 517.4C551.656 517.4 550.296 515.84 550.216 513.22H558.016V512.58C558.016 509.96 556.296 508.16 553.796 508.16C551.116 508.16 549.296 510.22 549.296 513.22C549.296 516.24 551.136 518.24 553.916 518.24ZM553.796 509C555.776 509 557.076 510.38 557.076 512.46H550.236C550.456 510.36 551.836 509 553.796 509ZM564.029 518.24C565.689 518.24 567.069 517.48 567.789 515.84L567.929 518H568.669V503.56H567.749V510.48C567.049 508.92 565.729 508.16 564.029 508.16C561.209 508.16 559.609 510.36 559.609 513.2C559.609 516.04 561.209 518.24 564.029 518.24ZM564.129 517.4C561.849 517.4 560.549 515.64 560.549 513.2C560.549 510.78 561.849 509 564.129 509C566.429 509 567.729 510.78 567.729 513.2C567.729 515.64 566.429 517.4 564.129 517.4Z" fill="#F6F6F6"/>
<path d="M124.18 470.38H121.62V485H124.18V470.38ZM129.501 485V479.68C129.501 478.08 130.421 477.04 131.921 477.04C133.181 477.04 134.001 477.84 134.001 479.5V485H136.441V478.92C136.441 476.36 135.161 474.82 132.681 474.82C131.341 474.82 130.141 475.4 129.521 476.4L129.321 475.12H127.061V485H129.501ZM142.198 485V477.16H144.118V475.12H142.198V472.04H139.758V475.12H137.858V477.16H139.758V485H142.198ZM149.957 485.26C152.537 485.26 154.337 483.96 154.757 481.8H152.497C152.217 482.74 151.337 483.26 149.997 483.26C148.377 483.26 147.457 482.38 147.277 480.64L154.717 480.62V479.88C154.717 476.8 152.837 474.82 149.877 474.82C146.977 474.82 144.957 476.96 144.957 480.06C144.957 483.12 147.017 485.26 149.957 485.26ZM149.897 476.82C151.357 476.82 152.297 477.72 152.297 479.08H147.337C147.577 477.6 148.457 476.82 149.897 476.82ZM156.11 479.84C156.11 482.7 157.95 484.8 160.75 484.8C162.17 484.8 163.39 484.22 164.01 483.3V484.94C164.01 486.58 162.93 487.64 161.25 487.64C159.75 487.64 158.77 486.88 158.61 485.6H156.17C156.47 488.24 158.41 489.86 161.25 489.86C164.45 489.86 166.43 487.8 166.43 484.5V475.12H164.17L164.03 476.48C163.45 475.42 162.29 474.8 160.81 474.8C157.99 474.8 156.11 476.96 156.11 479.84ZM158.57 479.78C158.57 478.16 159.61 476.94 161.23 476.94C162.93 476.94 163.95 478.1 163.95 479.78C163.95 481.5 162.91 482.68 161.23 482.68C159.63 482.68 158.57 481.44 158.57 479.78ZM175.155 475.08C174.755 474.98 174.415 474.94 174.075 474.94C172.755 474.94 171.815 475.6 171.395 476.58L171.255 475.14H168.955V485H171.395V480.2C171.395 478.28 172.495 477.34 174.255 477.34H175.155V475.08ZM179.356 485.26C180.896 485.26 182.236 484.56 182.656 483.54L182.836 485H184.976V479C184.976 476.26 183.336 474.82 180.676 474.82C177.996 474.82 176.236 476.22 176.236 478.36H178.316C178.316 477.32 179.116 476.72 180.556 476.72C181.796 476.72 182.596 477.26 182.596 478.6V478.82L179.636 479.04C177.296 479.22 175.976 480.36 175.976 482.18C175.976 484.04 177.256 485.26 179.356 485.26ZM180.156 483.42C179.056 483.42 178.456 482.98 178.456 482.08C178.456 481.28 179.036 480.78 180.556 480.64L182.616 480.48V481C182.616 482.52 181.656 483.42 180.156 483.42ZM190.597 485V477.16H192.517V475.12H190.597V472.04H188.157V475.12H186.257V477.16H188.157V485H190.597ZM195.253 473.14C196.053 473.14 196.713 472.48 196.713 471.66C196.713 470.84 196.053 470.2 195.253 470.2C194.413 470.2 193.753 470.84 193.753 471.66C193.753 472.48 194.413 473.14 195.253 473.14ZM194.033 485H196.473V475.12H194.033V485ZM198.414 480.04C198.414 483.12 200.634 485.24 203.694 485.24C206.754 485.24 208.974 483.12 208.974 480.04C208.974 476.96 206.754 474.84 203.694 474.84C200.634 474.84 198.414 476.96 198.414 480.04ZM200.854 480.04C200.854 478.24 202.014 477.02 203.694 477.02C205.374 477.02 206.534 478.24 206.534 480.04C206.534 481.84 205.374 483.06 203.694 483.06C202.014 483.06 200.854 481.84 200.854 480.04ZM213.348 485V479.68C213.348 478.08 214.268 477.04 215.768 477.04C217.028 477.04 217.848 477.84 217.848 479.5V485H220.288V478.92C220.288 476.36 219.008 474.82 216.528 474.82C215.188 474.82 213.988 475.4 213.368 476.4L213.168 475.12H210.908V485H213.348ZM224.246 477.56C224.926 477.56 225.506 476.98 225.506 476.32C225.506 475.64 224.926 475.08 224.246 475.08C223.566 475.08 222.986 475.64 222.986 476.32C222.986 476.98 223.566 477.56 224.246 477.56ZM224.246 485.22C224.926 485.22 225.506 484.66 225.506 484C225.506 483.32 224.926 482.74 224.246 482.74C223.566 482.74 222.986 483.32 222.986 484C222.986 484.66 223.566 485.22 224.246 485.22ZM235.877 485V476.2H237.817V475.4H235.877V472.36H234.957V475.4H233.017V476.2H234.957V485H235.877ZM241.723 485H242.663L244.943 478.14C245.103 477.68 245.263 477.16 245.403 476.6C245.543 477.24 245.683 477.68 245.843 478.14L248.123 485H249.063L252.283 475.4H251.343L249.163 481.92C248.763 483.14 248.823 482.98 248.603 483.8C248.403 483.06 248.223 482.5 248.023 481.92L245.863 475.4H244.923L242.763 481.92C242.743 481.96 242.363 483.1 242.203 483.82C242.003 483.08 241.823 482.5 241.623 481.92L239.463 475.4H238.523L241.723 485ZM252.988 480.2C252.988 483.1 255.008 485.24 257.748 485.24C260.488 485.24 262.508 483.1 262.508 480.2C262.508 477.3 260.488 475.16 257.748 475.16C255.008 475.16 252.988 477.3 252.988 480.2ZM253.928 480.2C253.928 477.74 255.508 476 257.748 476C259.988 476 261.568 477.74 261.568 480.2C261.568 482.66 259.988 484.4 257.748 484.4C255.508 484.4 253.928 482.66 253.928 480.2ZM269.706 480.24C269.706 483.24 271.506 485.24 274.146 485.24C276.186 485.24 277.826 484.04 278.346 482.22H277.406C276.966 483.52 275.686 484.4 274.146 484.4C272.006 484.4 270.606 482.7 270.606 480.22C270.606 477.62 272.126 475.98 274.266 475.98C275.686 475.98 276.966 476.78 277.366 478.2H278.306C277.866 476.38 276.326 475.16 274.266 475.16C271.506 475.16 269.706 477.2 269.706 480.24ZM279.843 480.2C279.843 483.1 281.863 485.24 284.603 485.24C287.343 485.24 289.363 483.1 289.363 480.2C289.363 477.3 287.343 475.16 284.603 475.16C281.863 475.16 279.843 477.3 279.843 480.2ZM280.783 480.2C280.783 477.74 282.363 476 284.603 476C286.843 476 288.423 477.74 288.423 480.2C288.423 482.66 286.843 484.4 284.603 484.4C282.363 484.4 280.783 482.66 280.783 480.2ZM292.596 485V478.84C292.596 477.4 293.596 476 295.416 476C297.016 476 298.016 477.06 298.016 478.82V485H298.916V478.86C298.916 477.42 299.916 476 301.736 476C303.336 476 304.336 477.08 304.336 478.84V485H305.216V478.72C305.216 476.48 303.796 475.16 301.816 475.16C300.216 475.16 299.056 476 298.636 477.32C298.216 476 297.036 475.16 295.496 475.16C294.156 475.16 293.056 475.78 292.556 476.88L292.416 475.4H291.676V485H292.596ZM308.141 489.06H309.061V482.92C309.761 484.48 311.081 485.24 312.781 485.24C315.601 485.24 317.201 483.04 317.201 480.2C317.201 477.36 315.601 475.16 312.781 475.16C311.121 475.16 309.741 475.92 309.021 477.56L308.881 475.4H308.141V489.06ZM309.081 480.2C309.081 477.76 310.381 476 312.681 476C314.961 476 316.261 477.76 316.261 480.2C316.261 482.62 314.961 484.4 312.681 484.4C310.381 484.4 309.081 482.62 309.081 480.2ZM318.808 480.2C318.808 483.1 320.828 485.24 323.568 485.24C326.308 485.24 328.328 483.1 328.328 480.2C328.328 477.3 326.308 475.16 323.568 475.16C320.828 475.16 318.808 477.3 318.808 480.2ZM319.748 480.2C319.748 477.74 321.328 476 323.568 476C325.808 476 327.388 477.74 327.388 480.2C327.388 482.66 325.808 484.4 323.568 484.4C321.328 484.4 319.748 482.66 319.748 480.2ZM331.561 485V480.04C331.561 477.62 332.781 476 334.961 476C336.701 476 337.801 476.8 337.801 479.34V485H338.721V479.16C338.721 476.76 337.701 475.16 334.981 475.16C333.541 475.16 332.221 475.92 331.581 477.26L331.381 475.4H330.641V485H331.561ZM345.537 485.24C347.697 485.24 349.077 484.22 349.637 482.24H348.697C348.317 483.66 347.237 484.4 345.537 484.4C343.277 484.4 341.917 482.84 341.837 480.22H349.637V479.58C349.637 476.96 347.917 475.16 345.417 475.16C342.737 475.16 340.917 477.22 340.917 480.22C340.917 483.24 342.757 485.24 345.537 485.24ZM345.417 476C347.397 476 348.697 477.38 348.697 479.46H341.857C342.077 477.36 343.457 476 345.417 476ZM352.87 485V480.04C352.87 477.62 354.09 476 356.27 476C358.01 476 359.11 476.8 359.11 479.34V485H360.03V479.16C360.03 476.76 359.01 475.16 356.29 475.16C354.85 475.16 353.53 475.92 352.89 477.26L352.69 475.4H351.95V485H352.87ZM364.686 485V476.2H366.626V475.4H364.686V472.36H363.766V475.4H361.826V476.2H363.766V485H364.686ZM367.691 482.4C367.691 484.14 368.991 485.24 371.031 485.24C373.131 485.24 374.531 484.14 374.531 482.5C374.531 481.16 373.791 480.38 372.111 479.94L370.511 479.52C369.351 479.22 368.791 478.64 368.791 477.82C368.791 476.64 369.631 476 371.171 476C372.611 476 373.491 476.72 373.551 477.96H374.451C374.391 476.22 373.151 475.16 371.171 475.16C369.191 475.16 367.871 476.22 367.871 477.82C367.871 479 368.651 479.92 370.291 480.34L371.911 480.76C373.151 481.08 373.611 481.56 373.611 482.5C373.611 483.68 372.611 484.4 370.991 484.4C369.511 484.4 368.591 483.64 368.591 482.4H367.691ZM385.314 485.24C386.974 485.24 388.314 484.5 388.974 483.2L389.154 485H389.894V478.64C389.894 476.16 388.254 475.16 386.194 475.16C383.934 475.16 382.414 476.36 382.414 478.24H383.334C383.334 476.84 384.394 476 386.174 476C387.694 476 388.974 476.62 388.974 478.78V479.14L385.674 479.4C383.434 479.58 382.074 480.7 382.074 482.46C382.074 484.1 383.254 485.24 385.314 485.24ZM385.434 484.42C383.994 484.42 382.994 483.76 382.994 482.44C382.994 481.26 383.814 480.32 385.754 480.16L388.974 479.9V480.42C388.974 482.78 387.694 484.42 385.434 484.42ZM397.389 475.26C397.069 475.18 396.849 475.16 396.549 475.16C395.189 475.16 394.129 475.86 393.749 476.94L393.669 475.4H392.809V485H393.729V479.16C393.729 477.36 394.889 476.06 396.669 476.06H397.389V475.26ZM402.822 485.24C404.982 485.24 406.362 484.22 406.922 482.24H405.982C405.602 483.66 404.522 484.4 402.822 484.4C400.562 484.4 399.202 482.84 399.122 480.22H406.922V479.58C406.922 476.96 405.202 475.16 402.702 475.16C400.022 475.16 398.202 477.22 398.202 480.22C398.202 483.24 400.042 485.24 402.822 485.24ZM402.702 476C404.682 476 405.982 477.38 405.982 479.46H399.142C399.362 477.36 400.742 476 402.702 476ZM414.12 480.24C414.12 483.24 415.92 485.24 418.56 485.24C420.6 485.24 422.24 484.04 422.76 482.22H421.82C421.38 483.52 420.1 484.4 418.56 484.4C416.42 484.4 415.02 482.7 415.02 480.22C415.02 477.62 416.54 475.98 418.68 475.98C420.1 475.98 421.38 476.78 421.78 478.2H422.72C422.28 476.38 420.74 475.16 418.68 475.16C415.92 475.16 414.12 477.2 414.12 480.24ZM425.437 472.46C425.877 472.46 426.277 472.08 426.277 471.64C426.277 471.18 425.877 470.78 425.437 470.78C424.977 470.78 424.597 471.18 424.597 471.64C424.597 472.08 424.977 472.46 425.437 472.46ZM424.977 485H425.897V475.4H424.977V485ZM433.522 475.26C433.202 475.18 432.982 475.16 432.682 475.16C431.322 475.16 430.262 475.86 429.882 476.94L429.802 475.4H428.942V485H429.862V479.16C429.862 477.36 431.022 476.06 432.802 476.06H433.522V475.26ZM434.335 480.24C434.335 483.24 436.135 485.24 438.775 485.24C440.815 485.24 442.455 484.04 442.975 482.22H442.035C441.595 483.52 440.315 484.4 438.775 484.4C436.635 484.4 435.235 482.7 435.235 480.22C435.235 477.62 436.755 475.98 438.895 475.98C440.315 475.98 441.595 476.78 441.995 478.2H442.935C442.495 476.38 440.955 475.16 438.895 475.16C436.135 475.16 434.335 477.2 434.335 480.24ZM452.032 475.4V480.52C452.032 483 450.792 484.4 448.772 484.4C447.172 484.4 446.012 483.54 446.012 481.08V475.38H445.072V481.32C445.072 483.66 446.252 485.24 448.552 485.24C450.152 485.24 451.512 484.42 452.032 483.22L452.212 485H452.952V475.4H452.032ZM456.913 485V478.84C456.913 477.4 457.913 476 459.733 476C461.333 476 462.333 477.06 462.333 478.82V485H463.233V478.86C463.233 477.42 464.233 476 466.053 476C467.653 476 468.653 477.08 468.653 478.84V485H469.533V478.72C469.533 476.48 468.113 475.16 466.133 475.16C464.533 475.16 463.373 476 462.953 477.32C462.533 476 461.353 475.16 459.813 475.16C458.473 475.16 457.373 475.78 456.873 476.88L456.733 475.4H455.993V485H456.913ZM471.48 482.4C471.48 484.14 472.78 485.24 474.82 485.24C476.92 485.24 478.32 484.14 478.32 482.5C478.32 481.16 477.58 480.38 475.9 479.94L474.3 479.52C473.14 479.22 472.58 478.64 472.58 477.82C472.58 476.64 473.42 476 474.96 476C476.4 476 477.28 476.72 477.34 477.96H478.24C478.18 476.22 476.94 475.16 474.96 475.16C472.98 475.16 471.66 476.22 471.66 477.82C471.66 479 472.44 479.92 474.08 480.34L475.7 480.76C476.94 481.08 477.4 481.56 477.4 482.5C477.4 483.68 476.4 484.4 474.78 484.4C473.3 484.4 472.38 483.64 472.38 482.4H471.48ZM480.058 480.24C480.058 483.24 481.858 485.24 484.498 485.24C486.538 485.24 488.178 484.04 488.698 482.22H487.758C487.318 483.52 486.038 484.4 484.498 484.4C482.358 484.4 480.958 482.7 480.958 480.22C480.958 477.62 482.478 475.98 484.618 475.98C486.038 475.98 487.318 476.78 487.718 478.2H488.658C488.218 476.38 486.678 475.16 484.618 475.16C481.858 475.16 480.058 477.2 480.058 480.24ZM495.495 475.26C495.175 475.18 494.955 475.16 494.655 475.16C493.295 475.16 492.235 475.86 491.855 476.94L491.775 475.4H490.915V485H491.835V479.16C491.835 477.36 492.995 476.06 494.775 476.06H495.495V475.26ZM497.878 472.46C498.318 472.46 498.718 472.08 498.718 471.64C498.718 471.18 498.318 470.78 497.878 470.78C497.418 470.78 497.038 471.18 497.038 471.64C497.038 472.08 497.418 472.46 497.878 472.46ZM497.418 485H498.338V475.4H497.418V485ZM502.123 485L502.263 482.84C502.983 484.48 504.363 485.24 506.023 485.24C508.843 485.24 510.443 483.04 510.443 480.2C510.443 477.36 508.843 475.16 506.023 475.16C504.323 475.16 503.003 475.92 502.303 477.48V470.56H501.383V485H502.123ZM502.323 480.2C502.323 477.78 503.623 476 505.923 476C508.203 476 509.503 477.78 509.503 480.2C509.503 482.64 508.203 484.4 505.923 484.4C503.623 484.4 502.323 482.64 502.323 480.2ZM516.67 485.24C518.83 485.24 520.21 484.22 520.77 482.24H519.83C519.45 483.66 518.37 484.4 516.67 484.4C514.41 484.4 513.05 482.84 512.97 480.22H520.77V479.58C520.77 476.96 519.05 475.16 516.55 475.16C513.87 475.16 512.05 477.22 512.05 480.22C512.05 483.24 513.89 485.24 516.67 485.24ZM516.55 476C518.53 476 519.83 477.38 519.83 479.46H512.99C513.21 477.36 514.59 476 516.55 476ZM526.783 485.24C528.443 485.24 529.823 484.48 530.543 482.84L530.683 485H531.423V470.56H530.503V477.48C529.803 475.92 528.483 475.16 526.783 475.16C523.963 475.16 522.363 477.36 522.363 480.2C522.363 483.04 523.963 485.24 526.783 485.24ZM526.883 484.4C524.603 484.4 523.303 482.64 523.303 480.2C523.303 477.78 524.603 476 526.883 476C529.183 476 530.483 477.78 530.483 480.2C530.483 482.64 529.183 484.4 526.883 484.4ZM542.795 485.24C544.455 485.24 545.795 484.5 546.455 483.2L546.635 485H547.375V478.64C547.375 476.16 545.735 475.16 543.675 475.16C541.415 475.16 539.895 476.36 539.895 478.24H540.815C540.815 476.84 541.875 476 543.655 476C545.175 476 546.455 476.62 546.455 478.78V479.14L543.155 479.4C540.915 479.58 539.555 480.7 539.555 482.46C539.555 484.1 540.735 485.24 542.795 485.24ZM542.915 484.42C541.475 484.42 540.475 483.76 540.475 482.44C540.475 481.26 541.295 480.32 543.235 480.16L546.455 479.9V480.42C546.455 482.78 545.175 484.42 542.915 484.42ZM551.21 485V480.04C551.21 477.62 552.43 476 554.61 476C556.35 476 557.45 476.8 557.45 479.34V485H558.37V479.16C558.37 476.76 557.35 475.16 554.63 475.16C553.19 475.16 551.87 475.92 551.23 477.26L551.03 475.4H550.29V485H551.21ZM564.986 485.24C566.646 485.24 568.026 484.48 568.746 482.84L568.886 485H569.626V470.56H568.706V477.48C568.006 475.92 566.686 475.16 564.986 475.16C562.166 475.16 560.566 477.36 560.566 480.2C560.566 483.04 562.166 485.24 564.986 485.24ZM565.086 484.4C562.806 484.4 561.506 482.64 561.506 480.2C561.506 477.78 562.806 476 565.086 476C567.386 476 568.686 477.78 568.686 480.2C568.686 482.64 567.386 484.4 565.086 484.4ZM577.418 482.4C577.418 484.14 578.718 485.24 580.758 485.24C582.858 485.24 584.258 484.14 584.258 482.5C584.258 481.16 583.518 480.38 581.838 479.94L580.238 479.52C579.078 479.22 578.518 478.64 578.518 477.82C578.518 476.64 579.358 476 580.898 476C582.338 476 583.218 476.72 583.278 477.96H584.178C584.118 476.22 582.878 475.16 580.898 475.16C578.918 475.16 577.598 476.22 577.598 477.82C577.598 479 578.378 479.92 580.018 480.34L581.638 480.76C582.878 481.08 583.338 481.56 583.338 482.5C583.338 483.68 582.338 484.4 580.718 484.4C579.238 484.4 578.318 483.64 578.318 482.4H577.418ZM590.615 485.24C592.775 485.24 594.155 484.22 594.715 482.24H593.775C593.395 483.66 592.315 484.4 590.615 484.4C588.355 484.4 586.995 482.84 586.915 480.22H594.715V479.58C594.715 476.96 592.995 475.16 590.495 475.16C587.815 475.16 585.995 477.22 585.995 480.22C585.995 483.24 587.835 485.24 590.615 485.24ZM590.495 476C592.475 476 593.775 477.38 593.775 479.46H586.935C587.155 477.36 588.535 476 590.495 476ZM597.028 489.06H597.948V482.92C598.648 484.48 599.968 485.24 601.668 485.24C604.488 485.24 606.088 483.04 606.088 480.2C606.088 477.36 604.488 475.16 601.668 475.16C600.008 475.16 598.628 475.92 597.908 477.56L597.768 475.4H597.028V489.06ZM597.968 480.2C597.968 477.76 599.268 476 601.568 476C603.848 476 605.148 477.76 605.148 480.2C605.148 482.62 603.848 484.4 601.568 484.4C599.268 484.4 597.968 482.62 597.968 480.2ZM611.135 485.24C612.795 485.24 614.135 484.5 614.795 483.2L614.975 485H615.715V478.64C615.715 476.16 614.075 475.16 612.015 475.16C609.755 475.16 608.235 476.36 608.235 478.24H609.155C609.155 476.84 610.215 476 611.995 476C613.515 476 614.795 476.62 614.795 478.78V479.14L611.495 479.4C609.255 479.58 607.895 480.7 607.895 482.46C607.895 484.1 609.075 485.24 611.135 485.24ZM611.255 484.42C609.815 484.42 608.815 483.76 608.815 482.44C608.815 481.26 609.635 480.32 611.575 480.16L614.795 479.9V480.42C614.795 482.78 613.515 484.42 611.255 484.42ZM623.209 475.26C622.889 475.18 622.669 475.16 622.369 475.16C621.009 475.16 619.949 475.86 619.569 476.94L619.489 475.4H618.629V485H619.549V479.16C619.549 477.36 620.709 476.06 622.489 476.06H623.209V475.26ZM627.463 485.24C629.123 485.24 630.463 484.5 631.123 483.2L631.303 485H632.043V478.64C632.043 476.16 630.403 475.16 628.343 475.16C626.083 475.16 624.563 476.36 624.563 478.24H625.483C625.483 476.84 626.543 476 628.323 476C629.843 476 631.123 476.62 631.123 478.78V479.14L627.823 479.4C625.583 479.58 624.223 480.7 624.223 482.46C624.223 484.1 625.403 485.24 627.463 485.24ZM627.583 484.42C626.143 484.42 625.143 483.76 625.143 482.44C625.143 481.26 625.963 480.32 627.903 480.16L631.123 479.9V480.42C631.123 482.78 629.843 484.42 627.583 484.42ZM636.502 485V476.2H638.442V475.4H636.502V472.36H635.582V475.4H633.642V476.2H635.582V485H636.502ZM644.17 485.24C646.33 485.24 647.71 484.22 648.27 482.24H647.33C646.95 483.66 645.87 484.4 644.17 484.4C641.91 484.4 640.55 482.84 640.47 480.22H648.27V479.58C648.27 476.96 646.55 475.16 644.05 475.16C641.37 475.16 639.55 477.22 639.55 480.22C639.55 483.24 641.39 485.24 644.17 485.24ZM644.05 476C646.03 476 647.33 477.38 647.33 479.46H640.49C640.71 477.36 642.09 476 644.05 476ZM654.283 485.24C655.943 485.24 657.323 484.48 658.043 482.84L658.183 485H658.923V470.56H658.003V477.48C657.303 475.92 655.983 475.16 654.283 475.16C651.463 475.16 649.863 477.36 649.863 480.2C649.863 483.04 651.463 485.24 654.283 485.24ZM654.383 484.4C652.103 484.4 650.803 482.64 650.803 480.2C650.803 477.78 652.103 476 654.383 476C656.683 476 657.983 477.78 657.983 480.2C657.983 482.64 656.683 484.4 654.383 484.4Z" fill="#F6F6F6"/>
<path d="M110.12 479L105.167 476.033L105.074 481.806L110.12 479ZM104.066 478.204C102.706 478.069 101.372 477.887 100.065 477.662L99.8947 478.647C101.226 478.877 102.583 479.061 103.967 479.199L104.066 478.204ZM96.1617 476.837C94.841 476.506 93.5497 476.127 92.2879 475.703L91.969 476.651C93.2559 477.084 94.5724 477.47 95.9184 477.807L96.1617 476.837ZM88.5412 474.273C87.3055 473.743 86.101 473.166 84.9277 472.545L84.4598 473.429C85.6571 474.063 86.8862 474.651 88.147 475.192L88.5412 474.273ZM81.4534 470.519C80.3247 469.797 79.2283 469.031 78.1642 468.223L77.5593 469.019C78.6445 469.843 79.763 470.625 80.9147 471.361L81.4534 470.519ZM75.0626 465.667C74.0667 464.778 73.103 463.85 72.1717 462.883L71.4515 463.577C72.4 464.561 73.3818 465.507 74.3969 466.413L75.0626 465.667ZM69.4893 459.887C68.635 458.861 67.8123 457.8 67.0212 456.705L66.2107 457.291C67.0149 458.404 67.8516 459.483 68.7209 460.527L69.4893 459.887ZM64.7768 453.376C64.0658 452.245 63.3851 451.084 62.7349 449.894L61.8574 450.374C62.5172 451.581 63.2081 452.76 63.9302 453.908L64.7768 453.376ZM60.9078 446.31C60.3367 445.107 59.7943 443.878 59.2806 442.627L58.3555 443.006C58.8758 444.274 59.4254 445.519 60.0044 446.739L60.9078 446.31ZM57.8404 438.843C57.3992 437.59 56.985 436.316 56.598 435.024L55.64 435.311C56.0315 436.618 56.4506 437.907 56.8971 439.175L57.8404 438.843ZM55.5259 431.121C55.2019 429.828 54.9036 428.519 54.6313 427.194L53.6518 427.395C53.9269 428.734 54.2283 430.057 54.5559 431.364L55.5259 431.121ZM53.8997 423.221C53.684 421.9 53.4932 420.566 53.3272 419.22L52.3347 419.342C52.5023 420.701 52.695 422.048 52.9128 423.383L53.8997 423.221ZM52.9093 415.209C52.795 413.871 52.7046 412.523 52.6382 411.166L51.6394 411.215C51.7064 412.584 51.7976 413.944 51.9129 415.294L52.9093 415.209ZM52.5117 407.14C52.4927 405.794 52.4968 404.441 52.524 403.082L51.5242 403.062C51.4968 404.433 51.4927 405.797 51.5118 407.154L52.5117 407.14ZM52.671 399.059C52.7422 397.715 52.8356 396.366 52.9514 395.012L51.955 394.927C51.8383 396.291 51.7441 397.651 51.6724 399.006L52.671 399.059ZM53.3581 391.004C53.515 389.667 53.6936 388.327 53.8938 386.985L52.9048 386.838C52.703 388.19 52.5231 389.54 52.3649 390.888L53.3581 391.004ZM54.5498 383.007C54.7891 381.683 55.0495 380.357 55.3311 379.03L54.3529 378.823C54.0692 380.159 53.8069 381.495 53.5657 382.83L54.5498 383.007ZM56.228 375.098C56.5471 373.789 56.8869 372.482 57.2473 371.176L56.2834 370.91C55.9203 372.225 55.578 373.543 55.2565 374.861L56.228 375.098ZM58.3786 367.303C58.7756 366.016 59.1927 364.731 59.6303 363.45L58.6839 363.126C58.2432 364.417 57.8229 365.712 57.423 367.008L58.3786 367.303ZM60.9907 359.651C61.4639 358.389 61.957 357.132 62.4701 355.879L61.5448 355.5C61.0278 356.762 60.531 358.029 60.0544 359.3L60.9907 359.651ZM64.0554 352.169C64.6035 350.938 65.1714 349.712 65.759 348.493L64.8581 348.058C64.2661 349.287 63.694 350.522 63.1419 351.762L64.0554 352.169ZM67.5653 344.886C68.1869 343.69 68.828 342.502 69.4886 341.321L68.616 340.833C67.9503 342.022 67.3043 343.22 66.6781 344.424L67.5653 344.886ZM71.5131 337.831C72.2069 336.677 72.9199 335.531 73.6522 334.394L72.8116 333.853C72.0736 334.998 71.3551 336.153 70.656 337.316L71.5131 337.831ZM75.8913 331.036C76.6557 329.928 77.4392 328.83 78.2417 327.743L77.4371 327.149C76.6282 328.245 75.8386 329.352 75.0682 330.468L75.8913 331.036ZM80.6908 324.533C81.5239 323.477 82.3759 322.432 83.2467 321.399L82.4821 320.755C81.6043 321.796 80.7455 322.849 79.9056 323.914L80.6908 324.533ZM85.9001 318.354C86.7995 317.356 87.7174 316.369 88.654 315.396L87.9335 314.703C86.9893 315.684 86.0638 316.678 85.157 317.685L85.9001 318.354ZM91.505 312.531C92.4674 311.596 93.4481 310.674 94.4469 309.767L93.7744 309.027C92.7673 309.942 91.7785 310.871 90.8081 311.814L91.505 312.531ZM97.4879 307.096C98.5091 306.229 99.5482 305.377 100.605 304.54L99.9843 303.756C98.9185 304.6 97.8707 305.46 96.8408 306.334L97.4879 307.096ZM103.827 302.077C104.902 301.284 105.995 300.506 107.104 299.744L106.538 298.92C105.419 299.688 104.318 300.472 103.234 301.272L103.827 302.077ZM110.485 297.507C111.612 296.789 112.756 296.087 113.917 295.401L113.408 294.54C112.238 295.232 111.084 295.94 109.948 296.664L110.485 297.507ZM117.435 293.404C118.03 293.079 118.629 292.759 119.232 292.443L118.768 291.557C118.16 291.876 117.556 292.198 116.956 292.526L117.435 293.404Z" fill="#F6F6F6"/>
<path d="M110 511L105.035 508.054L104.966 513.827L110 511ZM103.943 510.284C102.615 510.189 101.298 510.062 99.9924 509.905L99.8726 510.898C101.194 511.057 102.527 511.185 103.872 511.282L103.943 510.284ZM96.057 509.331C94.7323 509.104 93.4202 508.845 92.1208 508.554L91.9023 509.53C93.2182 509.824 94.5469 510.087 95.8882 510.316L96.057 509.331ZM88.2604 507.586C86.9781 507.23 85.7087 506.842 84.4523 506.424L84.1362 507.373C85.4087 507.797 86.6942 508.189 87.9928 508.55L88.2604 507.586ZM80.6927 505.065C79.4527 504.581 78.226 504.066 77.0125 503.521L76.6028 504.433C77.8313 504.985 79.0735 505.506 80.3291 505.996L80.6927 505.065ZM73.418 501.799C72.235 501.197 71.0652 500.565 69.9089 499.904L69.4128 500.772C70.5828 501.441 71.7666 502.08 72.9641 502.69L73.418 501.799ZM66.4801 497.836C65.3618 497.125 64.2567 496.387 63.1648 495.622L62.591 496.441C63.695 497.215 64.8126 497.961 65.9438 498.68L66.4801 497.836ZM59.9533 493.265C58.8959 492.453 57.8517 491.615 56.8208 490.752L56.1788 491.518C57.2203 492.39 58.2755 493.237 59.3442 494.058L59.9533 493.265ZM53.8156 488.129C52.8384 487.241 51.8739 486.33 50.9221 485.395L50.2215 486.109C51.1824 487.052 52.1562 487.972 53.1431 488.869L53.8156 488.129ZM48.1049 482.524C47.1942 481.561 46.2958 480.576 45.4099 479.57L44.6594 480.23C45.553 481.245 46.4593 482.239 47.3783 483.211L48.1049 482.524ZM42.8343 476.542C41.9878 475.513 41.1535 474.464 40.3314 473.395L39.5388 474.005C40.3674 475.082 41.2085 476.14 42.0619 477.177L42.8343 476.542ZM37.9293 470.169C37.1608 469.103 36.4037 468.019 35.6581 466.919L34.8301 467.48C35.5811 468.588 36.3438 469.68 37.1181 470.754L37.9293 470.169ZM33.4558 463.565C32.7333 462.431 32.0224 461.28 31.3231 460.112L30.4652 460.626C31.1691 461.801 31.8848 462.96 32.6123 464.103L33.4558 463.565ZM29.3361 456.696C28.6846 455.543 28.044 454.374 27.4142 453.192L26.5316 453.662C27.1652 454.852 27.8098 456.027 28.4654 457.188L29.3361 456.696ZM25.5578 449.602C24.9625 448.416 24.3778 447.217 23.8037 446.006L22.9 446.434C23.4773 447.652 24.0654 448.858 24.6641 450.05L25.5578 449.602ZM22.14 442.392C21.5957 441.175 21.0617 439.946 20.5381 438.705L19.6168 439.094C20.1431 440.341 20.6799 441.577 21.2272 442.8L22.14 442.392ZM18.9984 434.948C18.5129 433.727 18.0372 432.496 17.5713 431.255L16.635 431.607C17.1033 432.854 17.5813 434.091 18.0692 435.317L18.9984 434.948ZM16.2027 427.501C15.7563 426.239 15.3198 424.967 14.893 423.686L13.9443 424.002C14.3729 425.289 14.8115 426.567 15.26 427.834L16.2027 427.501ZM13.6543 419.851C13.2602 418.592 12.8754 417.325 12.4999 416.049L11.5406 416.331C11.9177 417.612 12.3042 418.885 12.7 420.149L13.6543 419.851ZM11.4014 412.195C11.0446 410.903 10.6972 409.602 10.3591 408.293L9.3909 408.543C9.73029 409.857 10.0792 411.163 10.4374 412.461L11.4014 412.195ZM9.38683 404.399C9.0767 403.113 8.77548 401.82 8.48321 400.52L7.50757 400.739C7.80096 402.044 8.10335 403.342 8.41471 404.633L9.38683 404.399ZM7.63335 396.599C7.35905 395.286 7.09374 393.965 6.83748 392.639L5.85563 392.828C6.11284 394.16 6.37913 395.485 6.65446 396.804L7.63335 396.599ZM6.10605 388.697C5.8738 387.393 5.65017 386.082 5.4352 384.766L4.44829 384.927C4.66402 386.248 4.88844 387.563 5.12153 388.872L6.10605 388.697ZM4.8163 380.802C4.61868 379.475 4.42975 378.143 4.24955 376.805L3.25851 376.939C3.43932 378.281 3.6289 379.618 3.82721 380.949L4.8163 380.802ZM3.74086 372.825C3.58163 371.508 3.43077 370.187 3.28833 368.861L2.29405 368.968C2.43696 370.298 2.58832 371.624 2.74809 372.945L3.74086 372.825ZM2.88627 364.87C2.76069 363.536 2.64355 362.197 2.5349 360.854L1.53816 360.935C1.64716 362.282 1.76468 363.625 1.89067 364.964L2.88627 364.87ZM2.23646 356.845C2.14644 355.52 2.06462 354.192 1.99102 352.861L0.992548 352.916C1.06638 354.252 1.14846 355.584 1.23876 356.913L2.23646 356.845ZM1.79494 348.857C1.73782 347.52 1.68897 346.179 1.6484 344.835L0.648858 344.865C0.689548 346.213 0.738556 347.558 0.795849 348.9L1.79494 348.857ZM1.55181 340.806C1.5282 339.478 1.51264 338.147 1.50518 336.814L0.505194 336.82C0.512682 338.157 0.528284 339.492 0.55197 340.824L1.55181 340.806ZM1.50709 332.808C1.51583 331.471 1.5327 330.131 1.55772 328.789L0.557892 328.77C0.532798 330.116 0.51588 331.46 0.507107 332.802L1.50709 332.808ZM1.65726 324.757C1.69814 323.427 1.74701 322.095 1.80391 320.762L0.804815 320.719C0.747751 322.057 0.698735 323.393 0.657737 324.727L1.65726 324.757ZM1.9984 316.762C2.07125 315.428 2.15214 314.092 2.24108 312.755L1.24329 312.688C1.15408 314.03 1.07295 315.369 0.999884 316.708L1.9984 316.762ZM2.53214 308.74C2.63665 307.408 2.74917 306.076 2.86972 304.742L1.87378 304.652C1.75288 305.99 1.64003 307.326 1.53521 308.662L2.53214 308.74ZM3.25366 300.757C3.38962 299.428 3.53357 298.099 3.68554 296.769L2.692 296.656C2.53959 297.989 2.39521 299.323 2.25885 300.656L3.25366 300.757ZM4.16552 292.779C4.33332 291.45 4.50916 290.121 4.69304 288.792L3.70248 288.655C3.51805 289.988 3.3417 291.321 3.1734 292.653L4.16552 292.779ZM5.26532 284.83C5.46406 283.509 5.67078 282.189 5.88552 280.868L4.89849 280.708C4.68312 282.032 4.47578 283.356 4.27646 284.681L5.26532 284.83ZM6.5538 276.909C6.78459 275.59 7.02343 274.272 7.27033 272.954L6.28744 272.77C6.03979 274.091 5.80024 275.414 5.56876 276.737L6.5538 276.909ZM8.03239 269.017C8.29415 267.707 8.56394 266.399 8.84177 265.091L7.8636 264.883C7.58493 266.195 7.31433 267.508 7.05178 268.821L8.03239 269.017ZM9.69944 261.171C9.99339 259.866 10.2954 258.562 10.6056 257.259L9.63275 257.027C9.32167 258.334 9.01872 259.642 8.72387 260.951L9.69944 261.171ZM11.5595 253.359C11.885 252.063 12.2186 250.769 12.5603 249.476L11.5936 249.221C11.2508 250.517 10.9161 251.816 10.5896 253.116L11.5595 253.359ZM13.6099 245.604C13.9679 244.316 14.3341 243.029 14.7084 241.745L13.7483 241.465C13.3728 242.753 13.0055 244.044 12.6464 245.337L13.6099 245.604ZM15.8559 237.899C16.2463 236.619 16.645 235.343 17.0518 234.069L16.0992 233.765C15.6911 235.043 15.2911 236.323 14.8994 237.607L15.8559 237.899ZM18.297 230.255C18.7203 228.986 19.1518 227.721 19.5916 226.458L18.6473 226.129C18.206 227.396 17.7731 228.666 17.3484 229.939L18.297 230.255ZM20.9359 222.678C21.3924 221.421 21.8573 220.167 22.3305 218.916L21.3952 218.562C20.9204 219.817 20.454 221.076 19.9959 222.337L20.9359 222.678ZM23.7757 215.172C24.2658 213.928 24.7643 212.687 25.2711 211.45L24.3457 211.071C23.8372 212.312 23.337 213.557 22.8453 214.806L23.7757 215.172ZM26.8169 207.749C27.3406 206.519 27.8727 205.293 28.4132 204.072L27.4987 203.667C26.9563 204.893 26.4223 206.123 25.8968 207.357L26.8169 207.749ZM30.0633 200.412C30.6218 199.196 31.1888 197.985 31.7644 196.778L30.8617 196.347C30.2841 197.559 29.7151 198.774 29.1546 199.994L30.0633 200.412ZM33.5167 193.17C34.1093 191.972 34.7105 190.779 35.3203 189.59L34.4306 189.134C33.8186 190.327 33.2152 191.524 32.6204 192.727L33.5167 193.17ZM37.178 186.035C37.8064 184.854 38.4435 183.677 39.0893 182.506L38.2136 182.023C37.5654 183.199 36.9259 184.38 36.2951 185.565L37.178 186.035ZM41.0528 179.009C41.716 177.848 42.3878 176.693 43.0685 175.543L42.208 175.034C41.5247 176.188 40.8503 177.348 40.1845 178.512L41.0528 179.009ZM45.1372 172.111C45.8368 170.97 46.5452 169.835 47.2624 168.706L46.4184 168.17C45.6983 169.303 44.9871 170.443 44.2848 171.588L45.1372 172.111ZM49.4405 165.338C50.1754 164.222 50.9191 163.111 51.6718 162.007L50.8455 161.444C50.0898 162.552 49.343 163.667 48.6052 164.788L49.4405 165.338ZM53.9563 158.714C54.7273 157.622 55.5073 156.536 56.2962 155.457L55.489 154.867C54.6968 155.95 53.9136 157.04 53.1394 158.137L53.9563 158.714ZM58.6905 152.24C59.4975 151.175 60.3136 150.116 61.1387 149.064L60.352 148.447C59.5234 149.503 58.7038 150.566 57.8933 151.636L58.6905 152.24ZM63.6409 145.932C64.4838 144.895 65.3358 143.865 66.1968 142.843L65.432 142.199C64.5672 143.226 63.7116 144.26 62.865 145.301L63.6409 145.932ZM68.8057 139.801C69.6844 138.795 70.5721 137.796 71.469 136.806L70.7276 136.134C69.8267 137.13 68.935 138.133 68.0524 139.144L68.8057 139.801ZM74.187 133.857C75.1022 132.882 76.0264 131.915 76.9599 130.956L76.2434 130.259C75.3057 131.222 74.3772 132.193 73.4579 133.172L74.187 133.857ZM79.7785 128.114C80.7269 127.175 81.6843 126.245 82.651 125.323L81.9608 124.599C80.9896 125.525 80.0277 126.46 79.075 127.403L79.7785 128.114ZM85.5784 122.583C86.5634 121.678 87.5575 120.782 88.5609 119.895L87.8985 119.146C86.8904 120.037 85.8915 120.937 84.9019 121.846L85.5784 122.583ZM91.588 117.27C92.6024 116.407 93.6258 115.553 94.6584 114.708L94.0251 113.934C92.9876 114.783 91.9593 115.641 90.9401 116.508L91.588 117.27ZM97.7835 112.201C98.8344 111.375 99.8944 110.558 100.964 109.751L100.361 108.953C99.2865 109.764 98.2213 110.585 97.1654 111.415L97.7835 112.201ZM104.198 107.357C105.273 106.578 106.357 105.808 107.449 105.048L106.878 104.228C105.78 104.991 104.691 105.765 103.611 106.547L104.198 107.357ZM110.755 102.798C111.865 102.057 112.985 101.326 114.114 100.606L113.576 99.7627C112.441 100.487 111.316 101.221 110.2 101.966L110.755 102.798ZM117.528 98.4732C118.102 98.1226 118.678 97.7747 119.256 97.4293L118.744 96.5707C118.162 96.9178 117.583 97.2675 117.007 97.6198L117.528 98.4732Z" fill="#F6F6F6"/>
</svg>
