<svg width="700" height="194" viewBox="0 0 700 194" fill="none" xmlns="http://www.w3.org/2000/svg">
<path d="M37.8099 56.601C42.127 56.601 45.6266 53.0843 45.6266 48.7462C45.6266 44.4081 42.127 40.8914 37.8099 40.8914C33.4928 40.8914 29.9932 44.4081 29.9932 48.7462C29.9932 53.0843 33.4928 56.601 37.8099 56.601Z" fill="#D9D9D9"/>
<path d="M37.8099 114.408C42.127 114.408 45.6266 110.892 45.6266 106.554C45.6266 102.215 42.127 98.6987 37.8099 98.6987C33.4928 98.6987 29.9932 102.215 29.9932 106.554C29.9932 110.892 33.4928 114.408 37.8099 114.408Z" fill="#D9D9D9"/>
<path d="M1.9842 1.01034C1.8882 0.913869 1.73254 0.913869 1.63653 1.01034L0.0720052 2.5825C-0.0240017 2.67897 -0.0240017 2.83539 0.0720052 2.93186C0.168012 3.02834 0.32367 3.02834 0.419677 2.93186L1.81037 1.5344L3.20105 2.93186C3.29706 3.02834 3.45272 3.02834 3.54873 2.93186C3.64473 2.83539 3.64473 2.67897 3.54873 2.5825L1.9842 1.01034ZM2.05621 142.75L2.05621 1.18503H1.56453L1.56453 142.75H2.05621Z" fill="#F6F6F6"/>
<path d="M142.862 142.924C142.958 142.828 142.958 142.672 142.862 142.575L141.298 141.003C141.202 140.906 141.046 140.906 140.95 141.003C140.854 141.1 140.854 141.256 140.95 141.352L142.341 142.75L140.95 144.147C140.854 144.244 140.854 144.4 140.95 144.496C141.046 144.593 141.202 144.593 141.298 144.496L142.862 142.924ZM1.81055 142.997H142.689V142.503H1.81055V142.997Z" fill="#F6F6F6"/>
<path d="M212.425 1.01034C212.329 0.913869 212.173 0.913869 212.077 1.01034L210.512 2.5825C210.416 2.67897 210.416 2.83539 210.512 2.93186C210.609 3.02834 210.764 3.02834 210.86 2.93186L212.251 1.5344L213.641 2.93186C213.738 3.02834 213.893 3.02834 213.99 2.93186C214.085 2.83539 214.085 2.67897 213.99 2.5825L212.425 1.01034ZM212.497 142.75V1.18503H212.005V142.75H212.497Z" fill="#F6F6F6"/>
<path d="M353.302 142.924C353.398 142.828 353.398 142.672 353.302 142.575L351.737 141.003C351.641 140.906 351.486 140.906 351.389 141.003C351.294 141.1 351.294 141.256 351.389 141.352L352.78 142.75L351.389 144.147C351.294 144.244 351.294 144.4 351.389 144.496C351.486 144.593 351.641 144.593 351.737 144.496L353.302 142.924ZM212.25 142.997H353.128V142.503H212.25V142.997Z" fill="#F6F6F6"/>
<path d="M258.912 40.8914H243.278V56.601H258.912V40.8914Z" fill="#D9D9D9"/>
<path d="M327.748 40.8914H312.114V56.601H327.748V40.8914Z" fill="#D9D9D9"/>
<path d="M327.748 98.6987H312.114V114.408H327.748V98.6987Z" fill="#D9D9D9"/>
<path d="M258.912 98.6987H243.278V114.408H258.912V98.6987Z" fill="#D9D9D9"/>
<path d="M251.093 50.0991L247.609 45.5944L245.469 50.8788L251.093 50.0991ZM106.76 50.5403C131.421 38.0679 151.524 31.6481 172.893 31.3361C194.27 31.0239 216.964 36.8227 246.812 48.8813L247.179 47.9645C217.283 35.8865 194.446 30.0331 172.878 30.348C151.304 30.663 131.05 37.1496 106.317 49.6578L106.76 50.5403Z" fill="#FF7E5E"/>
<path d="M212.251 107.412L207.334 104.559V110.265L212.251 107.412ZM106.539 107.906H207.826V106.918H106.539V107.906Z" fill="#FF7E5E"/>
<path d="M293.869 142.492L288.524 144.415L292.854 148.105L293.869 142.492ZM70.2461 142.78C78.1283 153.808 93.4747 162.117 112.564 167.75C131.674 173.389 154.617 176.371 177.801 176.683C200.985 176.995 224.429 174.636 244.542 169.58C264.638 164.527 281.474 156.764 291.368 146.218L290.652 145.54C280.95 155.882 264.333 163.585 244.303 168.621C224.288 173.653 200.93 176.006 177.814 175.695C154.698 175.384 131.846 172.41 112.842 166.802C93.8174 161.188 78.7325 152.96 71.0446 142.204L70.2461 142.78Z" fill="#FF7E5E"/>
<path d="M106.646 114.408C110.963 114.408 114.463 110.892 114.463 106.554C114.463 102.215 110.963 98.6987 106.646 98.6987C102.329 98.6987 98.8291 102.215 98.8291 106.554C98.8291 110.892 102.329 114.408 106.646 114.408Z" fill="#D9D9D9"/>
<path d="M106.646 56.601C110.963 56.601 114.463 53.0843 114.463 48.7462C114.463 44.4081 110.963 40.8914 106.646 40.8914C102.329 40.8914 98.8291 44.4081 98.8291 48.7462C98.8291 53.0843 102.329 56.601 106.646 56.601Z" fill="#D9D9D9"/>
<path d="M171.939 12.9082V24.4068H169.52V15.2158H169.453L166.832 16.8664V14.7105L169.665 12.9082H171.939Z" fill="#F6F6F6"/>
<path d="M154.668 101.977V100.226L158.741 96.4358C159.088 96.0988 159.379 95.7959 159.613 95.5262C159.852 95.2569 160.032 94.9931 160.155 94.7347C160.278 94.4728 160.339 94.1902 160.339 93.8868C160.339 93.5499 160.263 93.2598 160.111 93.0167C159.958 92.7697 159.749 92.5805 159.485 92.4495C159.22 92.3147 158.92 92.2475 158.585 92.2475C158.235 92.2475 157.93 92.3186 157.669 92.4609C157.408 92.6032 157.207 92.8068 157.065 93.0726C156.924 93.3384 156.853 93.6546 156.853 94.0217H154.557C154.557 93.2692 154.726 92.616 155.065 92.0622C155.404 91.5083 155.879 91.0795 156.49 90.7766C157.101 90.4732 157.805 90.3215 158.602 90.3215C159.421 90.3215 160.135 90.4678 160.742 90.7593C161.353 91.0478 161.828 91.448 162.166 91.9609C162.506 92.4737 162.675 93.0617 162.675 93.7238C162.675 94.1581 162.589 94.5869 162.418 95.0099C162.251 95.4328 161.951 95.9027 161.518 96.419C161.086 96.9318 160.477 97.5474 159.691 98.2663L158.021 99.9111V99.9897H162.826V101.977H154.668Z" fill="#F6F6F6"/>
<path d="M187.416 193.539C186.581 193.539 185.838 193.395 185.186 193.107C184.538 192.815 184.026 192.415 183.65 191.905C183.277 191.392 183.086 190.802 183.074 190.131H185.511C185.525 190.412 185.617 190.659 185.784 190.872C185.955 191.082 186.183 191.245 186.466 191.361C186.749 191.477 187.067 191.535 187.421 191.535C187.79 191.535 188.116 191.47 188.399 191.339C188.682 191.207 188.904 191.026 189.064 190.794C189.224 190.562 189.304 190.294 189.304 189.991C189.304 189.684 189.218 189.413 189.047 189.177C188.88 188.937 188.637 188.75 188.321 188.615C188.008 188.481 187.636 188.413 187.203 188.413H186.136V186.628H187.203C187.568 186.628 187.891 186.564 188.17 186.437C188.453 186.31 188.673 186.134 188.829 185.909C188.986 185.681 189.064 185.415 189.064 185.112C189.064 184.824 188.995 184.571 188.857 184.354C188.723 184.133 188.533 183.961 188.287 183.838C188.045 183.714 187.762 183.652 187.438 183.652C187.11 183.652 186.811 183.712 186.539 183.832C186.267 183.948 186.048 184.114 185.885 184.332C185.721 184.549 185.633 184.803 185.622 185.095H183.303C183.315 184.432 183.502 183.849 183.868 183.343C184.233 182.838 184.724 182.443 185.343 182.159C185.965 181.871 186.667 181.726 187.449 181.726C188.239 181.726 188.93 181.871 189.522 182.159C190.114 182.447 190.574 182.836 190.902 183.327C191.234 183.813 191.397 184.36 191.394 184.966C191.397 185.61 191.198 186.147 190.796 186.577C190.397 187.008 189.878 187.281 189.237 187.397V187.487C190.079 187.595 190.719 187.889 191.159 188.368C191.602 188.844 191.822 189.439 191.818 190.154C191.822 190.809 191.634 191.391 191.254 191.9C190.878 192.409 190.358 192.81 189.695 193.102C189.032 193.394 188.272 193.539 187.416 193.539Z" fill="#F6F6F6"/>
<path d="M445.397 56.601C449.714 56.601 453.214 53.0843 453.214 48.7462C453.214 44.4081 449.714 40.8914 445.397 40.8914C441.08 40.8914 437.58 44.4081 437.58 48.7462C437.58 53.0843 441.08 56.601 445.397 56.601Z" fill="#D9D9D9"/>
<path d="M445.397 114.408C449.714 114.408 453.214 110.892 453.214 106.554C453.214 102.215 449.714 98.6987 445.397 98.6987C441.08 98.6987 437.58 102.215 437.58 106.554C437.58 110.892 441.08 114.408 445.397 114.408Z" fill="#D9D9D9"/>
<path d="M407.131 1.01034C407.035 0.913869 406.879 0.913869 406.783 1.01034L405.218 2.5825C405.123 2.67897 405.123 2.83539 405.218 2.93186C405.315 3.02834 405.47 3.02834 405.567 2.93186L406.957 1.5344L408.347 2.93186C408.444 3.02834 408.599 3.02834 408.696 2.93186C408.791 2.83539 408.791 2.67897 408.696 2.5825L407.131 1.01034ZM407.203 142.75V1.18503H406.711V142.75H407.203Z" fill="#F6F6F6"/>
<path d="M548.011 142.924C548.104 142.828 548.104 142.672 548.011 142.575L546.443 141.003C546.349 140.906 546.192 140.906 546.098 141.003C546 141.1 546 141.256 546.098 141.352L547.485 142.75L546.098 144.147C546 144.244 546 144.4 546.098 144.496C546.192 144.593 546.349 144.593 546.443 144.496L548.011 142.924ZM406.957 142.997H547.834V142.503H406.957V142.997Z" fill="#F6F6F6"/>
<path d="M651.403 50.2648L651.775 49.3467L652.234 49.5325L652.421 49.0679L652.79 48.1511L652.976 47.6879L652.52 47.5038L652.891 46.5885L655.316 49.7224L651.403 50.2648Z" fill="#FF6B46" stroke="#FF7E5E"/>
<path d="M514.233 114.408C518.55 114.408 522.049 110.892 522.049 106.554C522.049 102.215 518.55 98.6987 514.233 98.6987C509.916 98.6987 506.416 102.215 506.416 106.554C506.416 110.892 509.916 114.408 514.233 114.408Z" fill="#D9D9D9"/>
<path d="M514.233 56.601C518.55 56.601 522.049 53.0843 522.049 48.7462C522.049 44.4081 518.55 40.8914 514.233 40.8914C509.916 40.8914 506.416 44.4081 506.416 48.7462C506.416 53.0843 509.916 56.601 514.233 56.601Z" fill="#D9D9D9"/>
<path d="M577.34 24.856V22.9414L582.119 15.3787H583.761V18.0287H582.788L579.779 22.8179V22.9077H586.569V24.856H577.34ZM582.832 26.8772V24.2721L582.881 23.4243V15.3787H585.148V26.8772H582.832Z" fill="#F6F6F6"/>
<path d="M583.662 191.563C582.871 191.563 582.168 191.417 581.548 191.125C580.934 190.833 580.447 190.431 580.083 189.918C579.724 189.405 579.537 188.817 579.522 188.155H581.868C581.892 188.6 582.079 188.961 582.428 189.239C582.773 189.515 583.186 189.654 583.662 189.654C584.041 189.654 584.375 189.57 584.666 189.401C584.961 189.229 585.192 188.992 585.354 188.688C585.521 188.381 585.605 188.03 585.605 187.633C585.605 187.228 585.521 186.873 585.349 186.566C585.182 186.259 584.946 186.019 584.651 185.847C584.351 185.675 584.012 185.587 583.628 185.583C583.294 185.583 582.964 185.653 582.65 185.791C582.335 185.93 582.094 186.119 581.917 186.358L579.768 185.971L580.309 179.907H587.306V181.895H582.3L582.005 184.775H582.074C582.276 184.491 582.581 184.255 582.984 184.068C583.392 183.88 583.844 183.787 584.346 183.787C585.039 183.787 585.654 183.95 586.19 184.275C586.731 184.601 587.158 185.048 587.473 185.617C587.783 186.182 587.94 186.833 587.935 187.571C587.94 188.346 587.758 189.035 587.399 189.637C587.04 190.236 586.539 190.708 585.895 191.052C585.256 191.392 584.508 191.563 583.662 191.563Z" fill="#F6F6F6"/>
<path d="M656.24 36.7588H700V63.9332H656.24V36.7588Z" fill="#666666"/>
<path d="M675.298 47.2242L671.546 58.0041H668.193L664.441 47.2242H667.583L669.815 54.9374H669.924L672.146 47.2242H675.298ZM676.817 58.0041V47.2242H679.792V58.0041H676.817ZM678.312 45.8346C677.869 45.8346 677.491 45.6872 677.176 45.3925C676.861 45.0931 676.704 44.7351 676.704 44.3187C676.704 43.907 676.861 43.5537 677.176 43.2589C677.491 42.9595 677.869 42.8098 678.312 42.8098C678.754 42.8098 679.133 42.9595 679.443 43.2589C679.762 43.5537 679.92 43.907 679.92 44.3187C679.92 44.7351 679.762 45.0931 679.443 45.3925C679.133 45.6872 678.754 45.8346 678.312 45.8346ZM691.1 50.298L688.376 50.4665C688.332 50.2328 688.234 50.0221 688.077 49.835C687.924 49.6432 687.723 49.4911 687.472 49.3788C687.226 49.2619 686.926 49.2034 686.582 49.2034C686.125 49.2034 685.736 49.3016 685.417 49.4981C685.102 49.6899 684.945 49.9473 684.945 50.2703C684.945 50.5272 685.043 50.7451 685.249 50.923C685.456 51.1004 685.805 51.2432 686.307 51.3509L688.244 51.7442C689.291 51.9591 690.068 52.3054 690.579 52.7827C691.091 53.26 691.346 53.887 691.346 54.6637C691.346 55.3702 691.14 55.9898 690.727 56.5234C690.314 57.0565 689.753 57.473 689.035 57.7724C688.322 58.0674 687.501 58.2146 686.572 58.2146C685.151 58.2146 684.02 57.9177 683.175 57.3233C682.339 56.7245 681.847 55.9102 681.699 54.8811L684.63 54.7264C684.718 55.1617 684.93 55.4942 685.269 55.7235C685.608 55.9478 686.046 56.0599 686.577 56.0599C687.098 56.0599 687.516 55.9596 687.836 55.7586C688.155 55.5525 688.318 55.2882 688.322 54.9651C688.318 54.6938 688.204 54.4715 687.978 54.2985C687.757 54.1207 687.413 53.9853 686.946 53.8914L685.087 53.5194C684.04 53.3089 683.263 52.9443 682.752 52.4245C682.24 51.9052 681.99 51.2432 681.99 50.4388C681.99 49.7461 682.176 49.1495 682.545 48.6489C682.924 48.1483 683.455 47.7623 684.133 47.4909C684.817 47.2195 685.618 47.0838 686.533 47.0838C687.89 47.0838 688.957 47.3716 689.734 47.9471C690.515 48.5226 690.973 49.3063 691.1 50.298Z" fill="white"/>
<path d="M656.24 76.7793H700V103.954H656.24V76.7793Z" fill="#666666"/>
<path d="M675.298 87.2449L671.546 98.0248H668.193L664.441 87.2449H667.583L669.815 94.958H669.924L672.146 87.2449H675.298ZM676.817 98.0248V87.2449H679.792V98.0248H676.817ZM678.312 85.8551C677.869 85.8551 677.491 85.7078 677.176 85.4129C676.861 85.1135 676.704 84.7558 676.704 84.3392C676.704 83.9277 676.861 83.5744 677.176 83.2794C677.491 82.98 677.869 82.8303 678.312 82.8303C678.754 82.8303 679.133 82.98 679.443 83.2794C679.762 83.5744 679.92 83.9277 679.92 84.3392C679.92 84.7558 679.762 85.1135 679.443 85.4129C679.133 85.7078 678.754 85.8551 678.312 85.8551ZM691.1 90.3186L688.376 90.4871C688.332 90.2534 688.234 90.0429 688.077 89.8556C687.924 89.6639 687.723 89.5118 687.472 89.3996C687.226 89.2825 686.926 89.2242 686.582 89.2242C686.125 89.2242 685.736 89.322 685.417 89.5187C685.102 89.7104 684.945 89.9678 684.945 90.2909C684.945 90.5478 685.043 90.7657 685.249 90.9436C685.456 91.121 685.805 91.2638 686.307 91.3715L688.244 91.7648C689.291 91.9797 690.068 92.326 690.579 92.8033C691.091 93.2806 691.346 93.9076 691.346 94.6843C691.346 95.3908 691.14 96.0104 690.727 96.544C690.314 97.0771 689.753 97.4936 689.035 97.793C688.322 98.088 687.501 98.2352 686.572 98.2352C685.151 98.2352 684.02 97.9383 683.175 97.3439C682.339 96.7451 681.847 95.9308 681.699 94.9017L684.63 94.747C684.718 95.1823 684.93 95.5148 685.269 95.7441C685.608 95.9684 686.046 96.0806 686.577 96.0806C687.098 96.0806 687.516 95.9803 687.836 95.7792C688.155 95.5731 688.318 95.3088 688.322 94.9857C688.318 94.7144 688.204 94.4921 687.978 94.3192C687.757 94.1413 687.413 94.0059 686.946 93.912L685.087 93.54C684.04 93.3295 683.263 92.9649 682.752 92.4451C682.24 91.9258 681.99 91.2638 681.99 90.4594C681.99 89.7667 682.176 89.1704 682.545 88.6694C682.924 88.1689 683.455 87.783 684.133 87.5117C684.817 87.24 685.618 87.1046 686.533 87.1046C687.89 87.1046 688.957 87.3922 689.734 87.9678C690.515 88.5434 690.973 89.327 691.1 90.3186Z" fill="white"/>
<mask id="path-32-inside-1_373_1893" fill="white">
<path d="M474.563 143.233L477.193 148.289L480.236 143.473L474.563 143.233ZM678.145 104.787C666.133 141.361 634.424 162.707 596.589 169.29C558.745 175.874 514.827 167.672 478.555 145.194L478.039 146.035C514.508 168.636 558.666 176.89 596.757 170.264C634.847 163.637 666.925 142.107 679.079 105.096L678.145 104.787Z"/>
</mask>
<path d="M474.563 143.233L477.193 148.289L480.236 143.473L474.563 143.233ZM678.145 104.787C666.133 141.361 634.424 162.707 596.589 169.29C558.745 175.874 514.827 167.672 478.555 145.194L478.039 146.035C514.508 168.636 558.666 176.89 596.757 170.264C634.847 163.637 666.925 142.107 679.079 105.096L678.145 104.787Z" fill="#FF6B46"/>
<path d="M474.563 143.233L474.775 138.237L466.14 137.872L470.127 145.54L474.563 143.233ZM477.193 148.289L472.757 150.596L476.772 158.317L481.42 150.96L477.193 148.289ZM480.236 143.473L484.463 146.144L489.076 138.843L480.447 138.478L480.236 143.473ZM678.145 104.787L679.716 100.041L674.958 98.4651L673.394 103.227L678.145 104.787ZM596.589 169.29L597.446 174.216L597.446 174.216L596.589 169.29ZM478.555 145.194L481.189 140.944L476.921 138.3L474.294 142.578L478.555 145.194ZM478.039 146.035L473.778 143.419L471.173 147.663L475.405 150.285L478.039 146.035ZM596.757 170.264L597.613 175.19L597.614 175.19L596.757 170.264ZM679.079 105.096L683.829 106.656L685.386 101.918L680.651 100.35L679.079 105.096ZM470.127 145.54L472.757 150.596L481.629 145.982L478.999 140.926L470.127 145.54ZM481.42 150.96L484.463 146.144L476.009 140.802L472.966 145.619L481.42 150.96ZM480.447 138.478L474.775 138.237L474.352 148.228L480.025 148.469L480.447 138.478ZM673.394 103.227C662.107 137.597 632.266 158.008 595.732 164.364L597.446 174.216C636.583 167.407 670.159 145.125 682.895 106.347L673.394 103.227ZM595.732 164.364C559.134 170.731 516.454 162.798 481.189 140.944L475.921 149.445C513.201 172.546 558.355 181.017 597.446 174.216L595.732 164.364ZM474.294 142.578L473.778 143.419L482.3 148.651L482.816 147.81L474.294 142.578ZM475.405 150.285C512.881 173.51 558.277 182.032 597.613 175.19L595.9 165.338C559.055 171.747 516.134 163.761 480.672 141.785L475.405 150.285ZM597.614 175.19C637.005 168.337 670.951 145.872 683.829 106.656L674.329 103.536C662.898 138.343 632.689 158.937 595.9 165.338L597.614 175.19ZM680.651 100.35L679.716 100.041L676.573 109.534L677.507 109.843L680.651 100.35Z" fill="#FF7E5E" mask="url(#path-32-inside-1_373_1893)"/>
</svg>
